<svg width="80" height="80" viewBox="0 0 80 80" fill="none" xmlns="http://www.w3.org/2000/svg">
<g clip-path="url(#clip0_10408_37397)">
<circle cx="40" cy="40" r="40" fill="#4AC63F"/>
<mask id="mask0_10408_37397" style="mask-type:alpha" maskUnits="userSpaceOnUse" x="0" y="0" width="80" height="80">
<circle cx="40" cy="40" r="40" fill="#4AC63F"/>
</mask>
<g mask="url(#mask0_10408_37397)">
<circle cx="66.25" cy="16.25" r="36.25" fill="#F6C92D"/>
</g>
<path fill-rule="evenodd" clip-rule="evenodd" d="M42.6135 10.2509C41.0831 10.7968 40.0899 11.7385 39.3565 13.3382C38.8271 14.4935 38.804 16.156 39.3 17.4261C39.7683 18.6253 40.965 19.8829 42.1574 20.4289C42.961 20.7969 43.2677 20.8548 44.4191 20.856C45.5531 20.857 45.8769 20.7986 46.5974 20.4629C50.8593 18.477 50.9497 12.4958 46.7483 10.4854C45.6187 9.94488 43.766 9.8398 42.6135 10.2509ZM40.4971 22.7865C40.1309 22.9071 37.9997 23.9649 35.7612 25.137C31.5407 27.3469 30.5744 28.0073 29.9241 29.1266C29.5177 29.8259 26.4368 39.7026 26.4381 40.302C26.4396 41.0506 26.7517 41.8124 27.2684 42.3292L27.7882 42.8488L27.2635 45.2343C26.9749 46.5461 26.7132 47.6452 26.682 47.6764C26.6508 47.7076 25.3675 47.4618 23.8302 47.1301C21.3477 46.5945 20.9608 46.5455 20.3693 46.6927C19.1319 47 18.5365 47.4854 18.0517 48.9098C17.9655 49.1628 17.8829 49.4454 17.8008 49.7619C17.8008 50.5106 15.7791 52.3696 15.7791 52.3696L17.1992 52.4283L13.9975 56.1909H16.2696L15.6241 57.3528L12.5 59.4958C12.5 59.4958 15.8472 59.0873 15.7791 59.4958C15.6304 60.3871 15.2138 62.4672 15.2505 62.7121C15.4403 63.9779 16.6777 65.1424 18.0949 65.3887C18.5312 65.4646 18.5733 65.4307 18.809 64.8132C19.099 64.054 20.1362 63.0676 20.9143 62.8108C21.8192 62.5122 23.1965 62.6929 24.0475 63.222L24.7938 63.6859L25.0289 62.6237C25.1582 62.0396 26.148 57.4325 27.2286 52.3857C29.1537 43.394 29.2005 43.2089 29.5542 43.1645C30.3093 43.0699 30.8412 42.817 31.3163 42.3268C31.7528 41.8766 31.977 41.2726 33.3073 36.9647L34.8066 32.1098L35.6891 31.6394C36.1744 31.3805 36.5922 31.1896 36.6175 31.2149C36.643 31.2402 36.3548 33.4167 35.9774 36.0514C35.1779 41.6317 35.1501 42.9388 35.8001 44.3586C36.3995 45.6681 36.7159 45.9673 44.8217 52.8926C44.8804 52.9428 45.131 55.7464 45.3786 59.1227C45.6262 62.4991 45.9024 65.542 45.9924 65.8845C46.3508 67.2478 47.767 68.2983 49.2389 68.2924C51.1609 68.2847 52.6322 66.7969 52.6337 64.8594C52.635 63.0171 51.7288 51.734 51.5129 50.9058C51.1418 49.4819 50.6181 48.85 47.7706 46.3918C45.1017 44.0877 44.4931 43.3831 44.4931 42.5968C44.4931 42.3632 44.9593 38.8762 45.5291 34.8478C46.0989 30.8194 46.5651 27.2759 46.5651 26.9732C46.5651 25.5937 45.4668 23.8615 44.0749 23.0458C43.2567 22.5664 41.5423 22.4421 40.4971 22.7865ZM47.2443 33.4367C47.0183 35.0911 46.8229 36.547 46.8102 36.6718C46.7885 36.8853 52.5221 41.4304 53.3783 41.8782C55.7958 43.1427 58.4197 40.539 57.1841 38.1016C56.9052 37.5516 56.2006 36.9448 52.8551 34.3738C50.6573 32.6847 48.5883 31.106 48.2572 30.8656L47.6553 30.4284L47.2443 33.4367ZM34.0827 50.5565C33.3664 52.7836 32.0858 56.7622 31.2368 59.3978C30.0895 62.9593 29.6941 64.3845 29.6965 64.9478C29.7098 68.0643 33.6218 69.4844 35.6539 67.1105C36.0122 66.6918 36.3193 65.9878 36.8265 64.4225C39.3521 56.6274 40.9629 51.5463 40.9187 51.5148C40.4242 51.1628 35.6444 46.9397 35.5361 46.759C35.418 46.562 35.1012 47.3894 34.0827 50.5565ZM21.0055 64.4329C19.7047 65.2501 19.7759 67.3841 21.1272 68.083C21.7918 68.4266 22.9197 68.3053 23.4222 67.836C24.4776 66.8499 24.4762 65.5962 23.4185 64.608C22.8814 64.1063 21.6657 64.018 21.0055 64.4329Z" fill="#FCFCFD"/>
</g>
<defs>
<clipPath id="clip0_10408_37397">
<rect width="80" height="80" fill="white"/>
</clipPath>
</defs>
</svg>
