<svg width="136" height="24" viewBox="0 0 136 24" fill="none" xmlns="http://www.w3.org/2000/svg">
<path fill-rule="evenodd" clip-rule="evenodd" d="M16.0179 7.43115L14.4918 3.77638C13.5679 1.56346 10.4328 1.56348 9.50877 3.77638L7.98275 7.43115L4.02404 7.74729C1.62712 7.9387 0.65727 10.9318 2.48641 12.4926L5.49492 15.0597L4.57544 18.8994C4.0164 21.234 6.55383 23.0826 8.60461 21.8348L12.0003 19.7688L15.396 21.8348C17.4468 23.0826 19.9842 21.2339 19.4252 18.8994L18.5057 15.0597L21.5142 12.4926C23.3434 10.9318 22.3735 7.9387 19.9766 7.74729L16.0179 7.43115Z" fill="#F6C92D"/>
<path fill-rule="evenodd" clip-rule="evenodd" d="M44.0179 7.43115L42.4918 3.77638C41.5679 1.56346 38.4328 1.56348 37.5088 3.77638L35.9827 7.43115L32.024 7.74729C29.6271 7.9387 28.6573 10.9318 30.4864 12.4926L33.4949 15.0597L32.5754 18.8994C32.0164 21.234 34.5538 23.0826 36.6046 21.8348L40.0003 19.7688L43.396 21.8348C45.4468 23.0826 47.9842 21.2339 47.4252 18.8994L46.5057 15.0597L49.5142 12.4926C51.3434 10.9318 50.3735 7.9387 47.9766 7.74729L44.0179 7.43115Z" fill="#F6C92D"/>
<path fill-rule="evenodd" clip-rule="evenodd" d="M72.0179 7.43115L70.4918 3.77638C69.5679 1.56346 66.4328 1.56348 65.5088 3.77638L63.9827 7.43115L60.024 7.74729C57.6271 7.9387 56.6573 10.9318 58.4864 12.4926L61.4949 15.0597L60.5754 18.8994C60.0164 21.234 62.5538 23.0826 64.6046 21.8348L68.0003 19.7688L71.396 21.8348C73.4468 23.0826 75.9842 21.2339 75.4252 18.8994L74.5057 15.0597L77.5142 12.4926C79.3434 10.9318 78.3735 7.9387 75.9766 7.74729L72.0179 7.43115Z" fill="#F6C92D"/>
<path fill-rule="evenodd" clip-rule="evenodd" d="M100.018 7.43115L98.4918 3.77638C97.5679 1.56346 94.4328 1.56348 93.5088 3.77638L91.9827 7.43115L88.024 7.74729C85.6271 7.9387 84.6573 10.9318 86.4864 12.4926L89.4949 15.0597L88.5754 18.8994C88.0164 21.234 90.5538 23.0826 92.6046 21.8348L96.0003 19.7688L99.396 21.8348C101.447 23.0826 103.984 21.2339 103.425 18.8994L102.506 15.0597L105.514 12.4926C107.343 10.9318 106.373 7.9387 103.977 7.74729L100.018 7.43115Z" fill="#F6C92D"/>
<path fill-rule="evenodd" clip-rule="evenodd" d="M128.018 7.43115L126.492 3.77638C125.568 1.56346 122.433 1.56348 121.509 3.77638L119.983 7.43115L116.024 7.74729C113.627 7.9387 112.657 10.9318 114.486 12.4926L117.495 15.0597L116.575 18.8994C116.016 21.234 118.554 23.0826 120.605 21.8348L124 19.7688L127.396 21.8348C129.447 23.0826 131.984 21.2339 131.425 18.8994L130.506 15.0597L133.514 12.4926C135.343 10.9318 134.373 7.9387 131.977 7.74729L128.018 7.43115Z" fill="#F6C92D"/>
</svg>
