<svg width="136" height="24" viewBox="0 0 136 24" fill="none" xmlns="http://www.w3.org/2000/svg">
<path fill-rule="evenodd" clip-rule="evenodd" d="M16.0179 7.43115L14.4918 3.77638C13.5679 1.56346 10.4328 1.56348 9.50877 3.77638L7.98275 7.43115L4.02404 7.74729C1.62712 7.9387 0.65727 10.9318 2.48641 12.4926L5.49492 15.0597L4.57544 18.8994C4.0164 21.234 6.55383 23.0826 8.60461 21.8348L12.0003 19.7688L15.396 21.8348C17.4468 23.0826 19.9842 21.2339 19.4252 18.8994L18.5057 15.0597L21.5142 12.4926C23.3434 10.9318 22.3735 7.9387 19.9766 7.74729L16.0179 7.43115Z" fill="#F6C92D"/>
<path fill-rule="evenodd" clip-rule="evenodd" d="M44.0179 7.43115L42.4918 3.77638C41.5679 1.56346 38.4328 1.56348 37.5088 3.77638L35.9827 7.43115L32.024 7.74729C29.6271 7.9387 28.6573 10.9318 30.4864 12.4926L33.4949 15.0597L32.5754 18.8994C32.0164 21.234 34.5538 23.0826 36.6046 21.8348L40.0003 19.7688L43.396 21.8348C45.4468 23.0826 47.9842 21.2339 47.4252 18.8994L46.5057 15.0597L49.5142 12.4926C51.3434 10.9318 50.3735 7.9387 47.9766 7.74729L44.0179 7.43115Z" fill="#F6C92D"/>
<path fill-rule="evenodd" clip-rule="evenodd" d="M72.0179 7.43115L70.4918 3.77638C69.5679 1.56346 66.4328 1.56348 65.5088 3.77638L63.9827 7.43115L60.024 7.74729C57.6271 7.9387 56.6573 10.9318 58.4864 12.4926L61.4949 15.0597L60.5754 18.8994C60.0164 21.234 62.5538 23.0826 64.6046 21.8348L68.0003 19.7688L71.396 21.8348C73.4468 23.0826 75.9842 21.2339 75.4252 18.8994L74.5057 15.0597L77.5142 12.4926C79.3434 10.9318 78.3735 7.9387 75.9766 7.74729L72.0179 7.43115Z" fill="#F6C92D"/>
<path fill-rule="evenodd" clip-rule="evenodd" d="M93.5228 8.93361C93.4217 9.17558 93.1939 9.3408 92.9325 9.36167L88.1833 9.74094C87.5618 9.79057 87.3104 10.5666 87.7846 10.9712L91.399 14.0554C91.5993 14.2262 91.6867 14.4949 91.6254 14.7509L90.5205 19.3652C90.3755 19.9704 91.0334 20.4497 91.5651 20.1262L95.6365 17.649C95.86 17.5131 96.1406 17.5131 96.3642 17.649L100.436 20.1262C100.967 20.4497 101.625 19.9704 101.48 19.3652L100.375 14.7509C100.314 14.4949 100.401 14.2262 100.602 14.0554L104.216 10.9712C104.69 10.5666 104.439 9.79057 103.817 9.74094L99.0681 9.36167C98.8067 9.3408 98.5789 9.17558 98.4779 8.93361L96.6463 4.54699C96.4067 3.97327 95.5939 3.97327 95.3544 4.54699L93.5228 8.93361ZM100.018 7.43115L98.4918 3.77638C97.5679 1.56346 94.4328 1.56348 93.5088 3.77638L91.9827 7.43115L88.024 7.74729C85.6271 7.9387 84.6573 10.9318 86.4864 12.4926L89.4949 15.0597L88.5754 18.8994C88.0164 21.234 90.5538 23.0826 92.6046 21.8348L96.0003 19.7688L99.396 21.8348C101.447 23.0826 103.984 21.2339 103.425 18.8994L102.506 15.0597L105.514 12.4926C107.343 10.9318 106.373 7.9387 103.977 7.74729L100.018 7.43115Z" fill="#B1B5C4"/>
<path fill-rule="evenodd" clip-rule="evenodd" d="M121.523 8.93361C121.422 9.17558 121.194 9.3408 120.933 9.36167L116.183 9.74094C115.562 9.79057 115.31 10.5666 115.785 10.9712L119.399 14.0554C119.599 14.2262 119.687 14.4949 119.625 14.7509L118.52 19.3652C118.376 19.9704 119.033 20.4497 119.565 20.1262L123.636 17.649C123.86 17.5131 124.141 17.5131 124.364 17.649L128.436 20.1262C128.967 20.4497 129.625 19.9704 129.48 19.3652L128.375 14.7509C128.314 14.4949 128.401 14.2262 128.602 14.0554L132.216 10.9712C132.69 10.5666 132.439 9.79057 131.817 9.74094L127.068 9.36167C126.807 9.3408 126.579 9.17558 126.478 8.93361L124.646 4.54699C124.407 3.97327 123.594 3.97327 123.354 4.54699L121.523 8.93361ZM128.018 7.43115L126.492 3.77638C125.568 1.56346 122.433 1.56348 121.509 3.77638L119.983 7.43115L116.024 7.74729C113.627 7.9387 112.657 10.9318 114.486 12.4926L117.495 15.0597L116.575 18.8994C116.016 21.234 118.554 23.0826 120.605 21.8348L124 19.7688L127.396 21.8348C129.447 23.0826 131.984 21.2339 131.425 18.8994L130.506 15.0597L133.514 12.4926C135.343 10.9318 134.373 7.9387 131.977 7.74729L128.018 7.43115Z" fill="#B1B5C4"/>
</svg>
