<svg width="24" height="24" viewBox="0 0 24 24" fill="none" xmlns="http://www.w3.org/2000/svg">
<path fill-rule="evenodd" clip-rule="evenodd" d="M18.2511 2.478C20.3117 1.61941 22.3789 3.68663 21.5203 5.74723L15.5968 19.9637C14.4384 22.7439 10.3636 22.274 9.86839 19.303L9.12938 14.8689L4.6953 14.1299C1.72431 13.6348 1.25437 9.55996 4.03465 8.40151L18.2511 2.478ZM19.6742 4.978C19.8459 4.56588 19.4324 4.15243 19.0203 4.32415L4.80388 10.2477C3.87712 10.6338 4.03377 11.9921 5.02409 12.1571L9.45818 12.8962C10.3011 13.0366 10.9617 13.6972 11.1022 14.5401L11.8412 18.9742C12.0062 19.9646 13.3645 20.1212 13.7506 19.1944L19.6742 4.978Z" fill="#B1B5C4"/>
</svg>
