<svg width="1440" height="299" viewBox="0 0 1440 299" fill="none" xmlns="http://www.w3.org/2000/svg">
<path fill-rule="evenodd" clip-rule="evenodd" d="M561.864 0.999751C560.523 1.02967 559.192 1.09338 557.871 1.18998L557.798 0.192642C559.136 0.0948062 560.484 0.0302997 561.841 0L561.864 0.999751ZM567.871 1.09153C567.2 1.05617 566.53 1.02929 565.862 1.01078L565.89 0.0111685C566.566 0.0299072 567.244 0.0571194 567.924 0.0929089C568.608 0.128891 569.289 0.173477 569.968 0.226556L569.89 1.22351C569.219 1.17109 568.547 1.12706 567.871 1.09153ZM553.891 1.58356C552.559 1.74974 551.24 1.94949 549.932 2.18186L549.757 1.19729C551.082 0.961907 552.418 0.759584 553.767 0.591263L553.891 1.58356ZM577.885 2.26294C576.569 2.02239 575.241 1.81462 573.901 1.64055L574.03 0.648886C575.387 0.825174 576.732 1.0356 578.065 1.27923L577.885 2.26294ZM546.012 2.98392C544.707 3.28627 543.416 3.62139 542.139 3.98831L541.863 3.02719C543.157 2.6555 544.465 2.31602 545.786 2.00975L546.012 2.98392ZM585.731 4.12141C584.445 3.74538 583.145 3.40137 581.832 3.09034L582.063 2.11726C583.393 2.4323 584.709 2.78075 586.011 3.16163L585.731 4.12141ZM915.713 4.33672C914.37 4.29718 913.032 4.28597 911.699 4.30258L911.687 3.30266C913.033 3.28587 914.385 3.2972 915.742 3.33715L915.713 4.33672ZM907.682 4.43743C906.339 4.5109 905.004 4.61259 903.675 4.74195L903.578 3.74666C904.921 3.61593 906.271 3.51317 907.627 3.43893L907.682 4.43743ZM921.732 4.70236C921.061 4.64061 920.391 4.58598 919.722 4.53841L919.793 3.54093C920.469 3.589 921.146 3.64419 921.823 3.70657C922.483 3.76732 923.141 3.83457 923.797 3.90825L923.685 4.90199C923.036 4.82906 922.385 4.76249 921.732 4.70236ZM899.686 5.21602C898.357 5.40278 897.035 5.61732 895.722 5.85909L895.541 4.87562C896.868 4.6313 898.203 4.41448 899.547 4.22574L899.686 5.21602ZM538.325 5.19266C537.06 5.6284 535.811 6.09578 534.578 6.59378L534.204 5.66657C535.453 5.1621 536.718 4.68864 537.999 4.24723L538.325 5.19266ZM593.34 6.78463C592.1 6.27649 590.843 5.79924 589.57 5.35388L589.901 4.41002C591.189 4.86113 592.463 5.34455 593.719 5.85925L593.34 6.78463ZM931.41 6.08861C930.136 5.83953 928.852 5.61537 927.558 5.4167L927.71 4.42828C929.017 4.62902 930.314 4.85552 931.601 5.10719L931.41 6.08861ZM891.789 6.67018C890.482 6.9691 889.183 7.2952 887.895 7.64791L887.631 6.68341C888.933 6.32697 890.245 5.9974 891.567 5.69532L891.789 6.67018ZM939.019 7.90396C937.769 7.55071 936.507 7.22197 935.235 6.91835L935.467 5.94565C936.753 6.25246 938.028 6.58466 939.291 6.94164L939.019 7.90396ZM530.91 8.18766C529.699 8.75181 528.505 9.34615 527.329 9.96962L526.861 9.08616C528.051 8.45464 529.261 7.85261 530.488 7.28115L530.91 8.18766ZM600.632 10.2246C599.45 9.58986 598.249 8.98456 597.031 8.40975L597.458 7.50535C598.692 8.08758 599.908 8.70068 601.105 9.34362L600.632 10.2246ZM884.043 8.79139C882.765 9.20046 881.499 9.636 880.244 10.0974L879.899 9.15884C881.167 8.69256 882.447 8.25241 883.738 7.83901L884.043 8.79139ZM946.445 10.3381C945.229 9.88279 944 9.45133 942.758 9.04436L943.07 8.09411C944.324 8.50538 945.567 8.94141 946.796 9.40157L946.445 10.3381ZM228.558 11.7907C227.243 11.7035 225.927 11.6482 224.61 11.6247L224.628 10.6248C225.961 10.6486 227.293 10.7046 228.624 10.7928L228.558 11.7907ZM876.504 11.5633C875.266 12.079 874.041 12.6202 872.829 13.1863L872.406 12.2803C873.63 11.7082 874.868 11.1613 876.119 10.6403L876.504 11.5633ZM220.659 11.6496C219.342 11.6898 218.026 11.7618 216.713 11.8655L216.634 10.8686C217.964 10.7636 219.295 10.6907 220.628 10.6501L220.659 11.6496ZM1221.59 11.9032C1220.24 11.8189 1218.89 11.7644 1217.56 11.739L1217.57 10.7392C1218.93 10.7648 1220.29 10.8199 1221.65 10.9051L1221.59 11.9032ZM1213.52 11.7506C1212.18 11.784 1210.84 11.847 1209.5 11.9388L1209.44 10.9412C1210.78 10.8483 1212.14 10.7847 1213.5 10.7509L1213.52 11.7506ZM953.651 13.3818C952.475 12.8263 951.284 12.2939 950.08 11.7853L950.469 10.8641C951.686 11.3781 952.889 11.9162 954.078 12.4776L953.651 13.3818ZM523.845 11.9343C522.699 12.6201 521.572 13.3344 520.466 14.0761L519.909 13.2455C521.029 12.4943 522.17 11.7708 523.331 11.0762L523.845 11.9343ZM236.408 12.6941C235.106 12.4801 233.801 12.2979 232.494 12.1474L232.608 11.1539C233.932 11.3063 235.253 11.4907 236.57 11.7074L236.408 12.6941ZM1227.61 12.4724C1226.94 12.3872 1226.27 12.3093 1225.6 12.2388L1225.7 11.2443C1226.38 11.3156 1227.06 11.3942 1227.74 11.4804C1228.42 11.5669 1229.1 11.6609 1229.78 11.7625L1229.63 12.7515C1228.96 12.651 1228.29 12.558 1227.61 12.4724ZM212.782 12.2717C211.476 12.4387 210.174 12.6373 208.876 12.8674L208.701 11.8828C210.015 11.6498 211.333 11.4488 212.655 11.2798L212.782 12.2717ZM1205.49 12.3054C1204.15 12.458 1202.82 12.64 1201.49 12.8506L1201.34 11.863C1202.67 11.6501 1204.02 11.4661 1205.38 11.3118L1205.49 12.3054ZM607.529 14.4028C606.418 13.6484 605.286 12.9219 604.134 12.2241L604.652 11.3689C605.819 12.0755 606.965 12.8114 608.09 13.5755L607.529 14.4028ZM244.132 14.3527C242.857 14.0134 241.575 13.7058 240.29 13.4297L240.499 12.452C241.801 12.7314 243.098 13.0429 244.389 13.3863L244.132 14.3527ZM1237.59 14.3235C1236.28 14.0017 1234.96 13.7088 1233.63 13.4456L1233.82 12.4645C1235.17 12.7308 1236.5 13.027 1237.83 13.3525L1237.59 14.3235ZM1197.53 13.573C1196.21 13.8441 1194.9 14.144 1193.61 14.4719L1193.36 13.5024C1194.67 13.1708 1196 12.8676 1197.33 12.5934L1197.53 13.573ZM205.003 13.6513C203.72 13.9435 202.442 14.267 201.172 14.6218L200.903 13.6586C202.189 13.2995 203.482 12.9721 204.781 12.6763L205.003 13.6513ZM869.227 14.9631C868.038 15.5812 866.863 16.2238 865.703 16.8903L865.205 16.0232C866.377 15.3497 867.565 14.7004 868.766 14.0758L869.227 14.9631ZM960.576 17.0107C959.45 16.3596 958.308 15.7307 957.152 15.1247L957.616 14.2389C958.785 14.8514 959.939 15.487 961.077 16.1449L960.576 17.0107ZM1245.37 16.6275C1244.09 16.1848 1242.81 15.7702 1241.5 15.3846L1241.79 14.4258C1243.1 14.8158 1244.41 15.2352 1245.69 15.6831L1245.37 16.6275ZM251.659 16.7516C250.422 16.2902 249.177 15.86 247.925 15.461L248.229 14.5082C249.496 14.9121 250.757 15.3476 252.009 15.8147L251.659 16.7516ZM1189.72 15.5479C1188.43 15.9363 1187.15 16.3526 1185.89 16.7961L1185.55 15.8525C1186.83 15.404 1188.13 14.9831 1189.43 14.5904L1189.72 15.5479ZM197.394 15.7764C196.145 16.1911 194.905 16.6367 193.675 17.113L193.314 16.1804C194.56 15.6982 195.815 15.2472 197.078 14.8274L197.394 15.7764ZM517.2 16.3889C516.131 17.1881 515.083 18.014 514.058 18.8653L513.419 18.0959C514.457 17.2338 515.519 16.3974 516.602 15.5879L517.2 16.3889ZM613.958 19.2709C612.93 18.4056 611.879 17.5663 610.806 16.7539L611.41 15.9567C612.496 16.7795 613.56 17.6296 614.601 18.5059L613.958 19.2709ZM1252.89 19.6499C1251.67 19.0891 1250.42 18.5556 1249.16 18.0501L1249.54 17.1221C1250.81 17.6334 1252.07 18.1731 1253.31 18.7404L1252.89 19.6499ZM1182.12 18.2139C1180.87 18.7157 1179.63 19.2444 1178.41 19.7993L1178 18.8889C1179.23 18.3279 1180.48 17.7933 1181.74 17.286L1182.12 18.2139ZM258.92 19.8691C257.732 19.2894 256.534 18.7405 255.327 18.2222L255.722 17.3033C256.944 17.8279 258.156 18.3836 259.359 18.9704L258.92 19.8691ZM190.025 18.6285C188.824 19.1618 187.633 19.7252 186.454 20.3188L186.005 19.4255C187.198 18.8247 188.403 18.2543 189.619 17.7146L190.025 18.6285ZM862.263 18.9644C861.131 19.6802 860.014 20.4195 858.913 21.1816L858.344 20.3595C859.456 19.5894 860.585 18.8424 861.729 18.119L862.263 18.9644ZM967.178 21.2C966.109 20.4576 965.022 19.7362 963.92 19.0366L964.456 18.1923C965.57 18.8992 966.667 19.6282 967.748 20.3785L967.178 21.2ZM1260.11 23.3664C1258.94 22.6925 1257.75 22.0445 1256.54 21.4235L1257 20.5345C1258.22 21.1628 1259.42 21.8182 1260.61 22.5L1260.11 23.3664ZM1174.78 21.549C1173.58 22.1596 1172.4 22.796 1171.23 23.4573L1170.74 22.5872C1171.92 21.9187 1173.11 21.2753 1174.32 20.6579L1174.78 21.549ZM511.045 21.4987C510.063 22.4022 509.105 23.3302 508.171 24.2816L507.457 23.581C508.403 22.6175 509.374 21.6777 510.368 20.7628L511.045 21.4987ZM264.149 22.6596C263.578 22.3277 263.004 22.0034 262.427 21.6866L262.909 20.81C263.493 21.1307 264.074 21.459 264.652 21.7949C265.241 22.1374 265.825 22.4865 266.404 22.8421L265.881 23.6942C265.309 23.3428 264.732 22.9979 264.149 22.6596ZM619.851 24.7744C618.917 23.8076 617.958 22.8648 616.975 21.9468L617.658 21.216C618.653 22.1456 619.625 23.1005 620.57 24.0796L619.851 24.7744ZM182.969 22.1807C181.825 22.8276 180.694 23.5039 179.577 24.2097L179.043 23.3642C180.174 22.6498 181.319 21.9651 182.476 21.3103L182.969 22.1807ZM973.414 25.9199C972.408 25.0918 971.385 24.2836 970.345 23.496L970.948 22.6986C972 23.4946 973.034 24.3113 974.049 25.1481L973.414 25.9199ZM855.659 23.5374C854.591 24.3455 853.54 25.1757 852.507 26.0276L851.871 25.2561C852.915 24.3953 853.977 23.5564 855.056 22.7399L855.659 23.5374ZM1266.94 27.7424C1265.84 26.9615 1264.72 26.2052 1263.57 25.4744L1264.11 24.6323C1265.27 25.3715 1266.4 26.1365 1267.52 26.9265L1266.94 27.7424ZM1167.77 25.5203C1166.63 26.2342 1165.5 26.9725 1164.4 27.7344L1163.83 26.911C1164.95 26.1408 1166.08 25.3945 1167.24 24.6728L1167.77 25.5203ZM272.531 28.246C271.464 27.4354 270.374 26.6489 269.261 25.8877L269.826 25.0625C270.952 25.833 272.055 26.6291 273.136 27.4497L272.531 28.246ZM176.289 26.3989C175.75 26.7768 175.214 27.1618 174.683 27.554L173.118 28.7087L172.524 27.904L174.089 26.7493C174.627 26.3523 175.169 25.9626 175.714 25.5802L176.289 26.3989ZM505.441 27.2068C504.556 28.2047 503.696 29.225 502.863 30.2665L502.082 29.6417C502.926 28.587 503.796 27.5538 504.693 26.5432L505.441 27.2068ZM625.149 30.8539C624.319 29.7959 623.461 28.7595 622.578 27.7461L623.332 27.0891C624.227 28.1155 625.095 29.165 625.936 30.2366L625.149 30.8539ZM979.24 31.1347C978.306 30.2269 977.352 29.3376 976.38 28.4676L977.047 27.7225C978.029 28.6016 978.993 29.5002 979.937 30.4176L979.24 31.1347ZM849.462 28.6478C848.466 29.5422 847.488 30.4576 846.53 31.3933L845.831 30.6779C846.8 29.7323 847.788 28.8074 848.794 27.9036L849.462 28.6478ZM1161.13 30.0945C1160.06 30.9053 1159 31.739 1157.97 32.5948L1157.33 31.8242C1158.38 30.9591 1159.44 30.1164 1160.53 29.2968L1161.13 30.0945ZM1273.33 32.7372C1272.31 31.8566 1271.26 30.9989 1270.19 30.1652L1270.81 29.3772C1271.89 30.2205 1272.95 31.088 1273.99 31.9787L1273.33 32.7372ZM278.699 33.4316C277.716 32.5188 276.709 31.6285 275.678 30.7619L276.322 29.9964C277.365 30.8737 278.385 31.7749 279.379 32.6989L278.699 33.4316ZM169.988 31.018L166.858 33.3273L166.264 32.5227L169.394 30.2133L169.988 31.018ZM500.443 33.4529C499.664 34.5349 498.912 35.6369 498.188 36.758L497.348 36.2155C498.081 35.0802 498.842 33.9642 499.632 32.8685L500.443 33.4529ZM984.621 36.8092C983.764 35.8276 982.886 34.8632 981.988 33.9168L982.714 33.2287C983.621 34.185 984.508 35.1594 985.374 36.1513L984.621 36.8092ZM629.794 37.4456C629.076 36.3072 628.33 35.1882 627.556 34.0899L628.374 33.5139C629.157 34.6262 629.913 35.7595 630.64 36.9125L629.794 37.4456ZM843.715 34.2596C842.798 35.2342 841.9 36.2285 841.023 37.2418L840.267 36.5875C841.153 35.5636 842.06 34.5589 842.987 33.5741L843.715 34.2596ZM1154.92 35.2305C1153.92 36.1315 1152.95 37.0539 1151.99 37.9968L1151.29 37.2846C1152.25 36.3314 1153.24 35.3991 1154.25 34.4884L1154.92 35.2305ZM1279.24 38.3051C1278.3 37.3327 1277.33 36.3815 1276.35 35.4526L1277.04 34.7252C1278.03 35.6648 1279 36.6268 1279.95 37.6104L1279.24 38.3051ZM163.728 35.6367L160.598 37.946L160.004 37.1413L163.134 34.832L163.728 35.6367ZM284.324 39.201C283.436 38.1951 282.522 37.2099 281.582 36.2464L282.298 35.5482C283.249 36.5236 284.175 37.5209 285.074 38.5391L284.324 39.201ZM989.521 42.9035C988.746 41.855 987.95 40.8224 987.133 39.8064L987.913 39.1798C988.738 40.2064 989.543 41.2498 990.325 42.3092L989.521 42.9035ZM157.467 40.2554L154.337 42.5647L153.744 41.76L156.874 39.4507L157.467 40.2554ZM496.104 40.1734C495.439 41.3284 494.803 42.5011 494.196 43.6906L493.305 43.2365C493.919 42.0318 494.564 40.8441 495.237 39.6744L496.104 40.1734ZM838.46 40.334C837.628 41.3817 836.817 42.4477 836.029 43.5313L835.22 42.943C836.017 41.8479 836.836 40.7708 837.677 39.7121L838.46 40.334ZM1149.18 40.8879C1148.26 41.8718 1147.37 42.8754 1146.5 43.8981L1145.74 43.2494C1146.62 42.2157 1147.52 41.2013 1148.45 40.2068L1149.18 40.8879ZM633.735 44.4812C633.138 43.2739 632.512 42.084 631.855 40.9124L632.728 40.4236C633.392 41.6103 634.027 42.8155 634.631 44.0382L633.735 44.4812ZM1284.6 44.3961C1283.75 43.3405 1282.88 42.3043 1281.99 41.2885L1282.74 40.6278C1283.64 41.6552 1284.52 42.7033 1285.38 43.771L1284.6 44.3961ZM289.353 45.4975C288.568 44.4084 287.756 43.3378 286.917 42.287L287.698 41.663C288.547 42.7266 289.37 43.8103 290.165 44.9128L289.353 45.4975ZM151.207 44.874L148.077 47.1834L147.483 46.3787L150.614 44.0693L151.207 44.874ZM993.908 49.3774C993.221 48.2688 992.512 47.1746 991.781 46.0955L992.609 45.5346C993.347 46.6248 994.064 47.7305 994.758 48.8507L993.908 49.3774ZM833.734 46.8283C832.994 47.942 832.276 49.0726 831.582 50.2195L830.726 49.7015C831.428 48.5425 832.154 47.4 832.902 46.2746L833.734 46.8283ZM1143.95 47.0219C1143.12 48.0813 1142.32 49.1587 1141.54 50.2536L1140.73 49.6734C1141.52 48.5668 1142.33 47.4777 1143.16 46.4069L1143.95 47.0219ZM492.471 47.3009C491.928 48.517 491.415 49.7485 490.933 50.9943L490.001 50.6339C490.488 49.372 491.008 48.1246 491.558 46.893L492.471 47.3009ZM1289.37 50.9571C1288.62 49.8273 1287.85 48.715 1287.06 47.6213L1287.87 47.033C1288.67 48.1392 1289.45 49.2641 1290.2 50.4069L1289.37 50.9571ZM636.926 51.8854C636.458 50.6222 635.958 49.3741 635.427 48.1419L636.345 47.7461C636.883 48.9941 637.39 50.2583 637.864 51.5378L636.926 51.8854ZM293.737 52.2591C293.063 51.0973 292.36 49.952 291.629 48.8242L292.468 48.2802C293.208 49.4217 293.92 50.5811 294.602 51.7571L293.737 52.2591ZM144.947 49.4927L141.817 51.802L141.223 50.9974L144.353 48.688L144.947 49.4927ZM997.752 56.1872C997.158 55.0259 996.54 53.8777 995.9 52.7431L996.771 52.2516C997.418 53.398 998.042 54.5583 998.642 55.7317L997.752 56.1872ZM1139.28 53.5865C1138.54 54.7132 1137.84 55.8564 1137.16 57.0152L1136.29 56.5082C1136.98 55.3368 1137.7 54.1812 1138.44 53.0424L1139.28 53.5865ZM829.575 53.699C828.931 54.8711 828.312 56.0587 827.717 57.2611L826.821 56.8176C827.422 55.6024 828.048 54.4023 828.698 53.2178L829.575 53.699ZM138.687 54.1114L135.557 56.4207L134.963 55.616L138.093 53.3067L138.687 54.1114ZM1293.51 57.9318C1292.88 56.7374 1292.21 55.5586 1291.52 54.3964L1292.38 53.8854C1293.08 55.0609 1293.75 56.2532 1294.4 57.4613L1293.51 57.9318ZM489.588 54.7614C489.173 56.0258 488.79 57.3033 488.439 58.5928L487.474 58.3305C487.829 57.0243 488.218 55.7303 488.638 54.4496L489.588 54.7614ZM297.434 59.4196C296.877 58.1964 296.29 56.9874 295.674 55.7938L296.563 55.335C297.186 56.5433 297.781 57.767 298.344 59.0052L297.434 59.4196ZM639.331 59.5805C638.997 58.2744 638.629 56.9811 638.229 55.7016L639.183 55.4033C639.589 56.6994 639.961 58.0093 640.3 59.3322L639.331 59.5805ZM132.427 58.7301L129.297 61.0394L128.703 60.2347L131.833 57.9254L132.427 58.7301ZM1001.02 63.2888C1000.53 62.0822 1000.01 60.8871 999.461 59.7042L1000.37 59.2857C1000.92 60.481 1001.45 61.6886 1001.95 62.9079L1001.02 63.2888ZM1135.19 60.534C1134.56 61.7198 1133.96 62.9205 1133.38 64.1352L1132.48 63.7057C1133.06 62.4778 1133.67 61.264 1134.31 60.0653L1135.19 60.534ZM826.012 60.8998C825.471 62.1209 824.955 63.3561 824.464 64.6048L823.534 64.2391C824.029 62.9772 824.551 61.7289 825.097 60.4948L826.012 60.8998ZM1297 65.2612C1296.47 64.0121 1295.92 62.7767 1295.34 61.556L1296.24 61.1271C1296.83 62.3618 1297.39 63.6114 1297.92 64.8748L1297 65.2612ZM487.491 62.4784C487.209 63.7779 486.96 65.0881 486.746 66.4081L485.759 66.2474C485.976 64.9102 486.228 63.5829 486.514 62.2666L487.491 62.4784ZM126.167 63.3487L124.602 64.5034C124.058 64.9044 123.513 65.3018 122.966 65.6957L122.382 64.8842C122.925 64.4925 123.468 64.0974 124.008 63.6987L125.573 62.544L126.167 63.3487ZM300.408 66.9095C299.974 65.6366 299.509 64.3757 299.013 63.1278L299.943 62.7588C300.444 64.022 300.915 65.2983 301.354 66.5868L300.408 66.9095ZM640.923 67.484C640.726 66.149 640.495 64.8245 640.23 63.5115L641.21 63.314C641.478 64.644 641.713 65.9856 641.912 67.3377L640.923 67.484ZM1003.7 70.6368C1003.31 69.3926 1002.89 68.1585 1002.44 66.9352L1003.38 66.5927C1003.83 67.829 1004.26 69.0761 1004.66 70.3334L1003.7 70.6368ZM119.664 68.0166C118.551 68.7798 117.431 69.5287 116.305 70.2634L115.759 69.4258C116.878 68.6954 117.992 67.9507 119.098 67.1919L119.664 68.0166ZM1131.73 67.8113C1131.21 69.0472 1130.71 70.2962 1130.24 71.5575L1129.31 71.2095C1129.78 69.9343 1130.28 68.6716 1130.81 67.4221L1131.73 67.8113ZM823.076 68.3725C822.641 69.6347 822.232 70.9095 821.849 72.1964L820.891 71.9112C821.278 70.6107 821.691 69.3223 822.13 68.0468L823.076 68.3725ZM1299.78 72.883C1299.37 71.5898 1298.94 70.3083 1298.48 69.0395L1299.41 68.6966C1299.88 69.9801 1300.32 71.2763 1300.73 72.5844L1299.78 72.883ZM486.206 70.3715C486.061 71.6922 485.949 73.0215 485.873 74.3582L484.874 74.3009C484.952 72.9468 485.065 71.6003 485.212 70.2624L486.206 70.3715ZM302.628 74.6562C302.322 73.3458 301.983 72.0451 301.614 70.7551L302.575 70.4795C302.949 71.7853 303.292 73.102 303.602 74.4285L302.628 74.6562ZM641.688 75.5103C641.629 74.1606 641.536 72.8193 641.409 71.4872L642.405 71.3924C642.533 72.7416 642.628 74.1001 642.687 75.4669L641.688 75.5103ZM112.901 72.428C111.754 73.1392 110.601 73.8359 109.441 74.5181L108.934 73.6561C110.087 72.9779 111.234 72.2852 112.375 71.5781L112.901 72.428ZM1005.76 78.1773C1005.47 76.9046 1005.15 75.6404 1004.81 74.3855L1005.78 74.1218C1006.12 75.39 1006.44 76.6675 1006.74 77.9537L1005.76 78.1773ZM1128.92 75.3676C1128.51 76.6442 1128.13 77.9322 1127.78 79.2307L1126.81 78.9675C1127.17 77.6546 1127.56 76.3523 1127.97 75.0616L1128.92 75.3676ZM105.938 76.5243C104.761 77.1808 103.577 77.8227 102.388 78.4499L101.922 77.5654C103.104 76.9418 104.281 76.3036 105.451 75.6509L105.938 76.5243ZM820.786 76.0699C820.46 77.3644 820.16 78.6702 819.887 79.9866L818.908 79.7837C819.183 78.4534 819.486 77.1339 819.816 75.8257L820.786 76.0699ZM1301.83 80.7319C1301.55 79.4056 1301.24 78.0891 1300.9 76.7832L1301.86 76.5298C1302.21 77.8507 1302.53 79.1825 1302.81 80.5242L1301.83 80.7319ZM485.747 78.3579C485.74 79.686 485.767 81.0205 485.829 82.3605L484.83 82.4067C484.767 81.0495 484.74 79.6978 484.747 78.3525L485.747 78.3579ZM304.073 82.5843C303.897 81.249 303.689 79.9211 303.449 78.6016L304.432 78.4223C304.676 79.758 304.887 81.1022 305.064 82.4539L304.073 82.5843ZM98.7939 80.2926C97.5882 80.8932 96.3771 81.4789 95.1608 82.0499L94.7358 81.1447C95.9451 80.577 97.1493 79.9946 98.3481 79.3975L98.7939 80.2926ZM641.718 81.5647C641.74 80.8889 641.754 80.2149 641.759 79.5426L642.759 79.5504C642.754 80.2311 642.74 80.9137 642.717 81.5979L642.649 83.6488L641.65 83.6156L641.718 81.5647ZM1007.2 85.8657C1007.01 84.5718 1006.8 83.285 1006.56 82.006L1007.54 81.8231C1007.78 83.1156 1008 84.4161 1008.19 85.7237L1007.2 85.8657ZM91.483 83.7245C90.2507 84.2684 89.0135 84.7974 87.7716 85.3114L87.3891 84.3874C88.6239 83.8763 89.854 83.3504 91.0793 82.8096L91.483 83.7245ZM1126.8 83.1395C1126.51 84.4469 1126.24 85.764 1126.01 87.09L1125.02 86.9141C1125.26 85.5733 1125.53 84.2416 1125.83 82.9197L1126.8 83.1395ZM819.155 83.9393C818.94 85.2541 818.751 86.5788 818.59 87.9127L817.597 87.7928C817.76 86.445 817.95 85.1065 818.168 83.7779L819.155 83.9393ZM1303.14 88.7394C1302.99 87.3916 1302.8 86.0517 1302.58 84.7205L1303.57 84.5589C1303.79 85.9056 1303.98 87.261 1304.14 88.6244L1303.14 88.7394ZM84.0214 86.8127C82.7647 87.2989 81.5036 87.77 80.2384 88.226L79.8993 87.2852C81.1573 86.8318 82.4111 86.3634 83.6605 85.88L84.0214 86.8127ZM486.116 86.3498C486.245 87.6682 486.408 88.9909 486.606 90.3171L485.617 90.4647C485.417 89.1218 485.252 87.7823 485.121 86.4471L486.116 86.3498ZM304.728 90.6156C304.685 89.2686 304.608 87.9267 304.499 86.591L305.496 86.5098C305.606 87.8618 305.684 89.2202 305.727 90.5837L304.728 90.6156ZM641.377 91.819L641.513 87.7173L642.513 87.7505L642.376 91.8522L641.377 91.819ZM76.4247 89.5506C75.1466 89.978 73.8645 90.3902 72.5788 90.7871L72.2838 89.8316C73.5621 89.437 74.8368 89.0272 76.1076 88.6022L76.4247 89.5506ZM1007.98 93.6441C1007.91 92.3398 1007.8 91.0412 1007.67 89.7489L1008.67 89.6481C1008.8 90.9541 1008.9 92.2665 1008.98 93.5846L1007.98 93.6441ZM1125.39 91.0759C1125.21 92.4024 1125.06 93.7368 1124.95 95.0785L1123.95 94.9915C1124.07 93.6349 1124.22 92.2856 1124.39 90.9444L1125.39 91.0759ZM68.7079 91.9332C67.4116 92.3007 66.1119 92.6529 64.8092 92.9897L64.5588 92.0216C65.8541 91.6866 67.1463 91.3365 68.4352 90.9711L68.7079 91.9332ZM818.192 91.9075C818.139 92.5759 818.093 93.2463 818.054 93.9189L817.944 95.8138L816.946 95.7559L817.056 93.861C817.095 93.1816 817.142 92.5042 817.195 91.829L818.192 91.9075ZM1303.7 96.832C1303.67 95.4748 1303.61 94.1236 1303.52 92.7793L1304.51 92.711C1304.61 94.0709 1304.67 95.4377 1304.7 96.8105L1303.7 96.832ZM60.8881 93.9553C59.5768 94.2621 58.2627 94.5535 56.9461 94.8295L56.7409 93.8508C58.05 93.5764 59.3565 93.2866 60.6603 92.9816L60.8881 93.9553ZM487.295 94.256C487.427 94.9108 487.567 95.5663 487.716 96.2223L488.147 98.1227L487.171 98.3438L486.74 96.4435C486.59 95.7794 486.448 95.1158 486.315 94.4528L487.295 94.256ZM52.9836 95.6125C51.6598 95.8582 50.3337 96.0884 49.0056 96.3032L48.8459 95.316C50.1664 95.1025 51.4849 94.8736 52.8012 94.6293L52.9836 95.6125ZM304.697 96.6614C304.725 95.9885 304.745 95.3164 304.757 94.6454L305.757 94.6628C305.745 95.342 305.725 96.0222 305.696 96.7034L305.614 98.6641L304.615 98.6221L304.697 96.6614ZM45.0113 96.9018C43.6774 97.086 42.3419 97.2546 41.0049 97.4078L40.8911 96.4143C42.2204 96.262 43.5483 96.0943 44.8745 95.9112L45.0113 96.9018ZM641.104 100.022L641.24 95.9207L642.24 95.9539L642.104 100.056L641.104 100.022ZM4.72666 97.771C3.38688 97.6446 2.04821 97.5027 0.710938 97.3453L0.827843 96.3522C2.15745 96.5087 3.48844 96.6497 4.82056 96.7754L4.72666 97.771ZM36.988 97.8209C35.647 97.9432 34.305 98.0499 32.9621 98.1411L32.8943 97.1434C34.2296 97.0527 35.5639 96.9466 36.8972 96.8251L36.988 97.8209ZM12.7825 98.3431C11.438 98.2788 10.0941 98.199 8.75104 98.1036L8.82188 97.1061C10.1573 97.201 11.4935 97.2803 12.8303 97.3443L12.7825 98.3431ZM28.9304 98.3681C27.5854 98.4282 26.2399 98.4728 24.8941 98.5018L24.8726 97.5021C26.2107 97.4732 27.5485 97.4289 28.8857 97.3691L28.9304 98.3681ZM20.8561 98.5423C19.51 98.5402 18.1638 98.5225 16.818 98.4893L16.8426 97.4896C18.1808 97.5227 19.5192 97.5402 20.8576 97.5423L20.8561 98.5423ZM1008.13 101.461C1008.16 100.153 1008.16 98.849 1008.14 97.5501L1009.14 97.5319C1009.16 98.8445 1009.16 100.162 1009.13 101.484L1008.13 101.461ZM1124.69 99.0976C1124.63 100.435 1124.6 101.78 1124.61 103.129L1123.61 103.132C1123.6 101.767 1123.63 100.408 1123.69 99.0554L1124.69 99.0976ZM817.725 99.6035L817.505 103.393L816.507 103.335L816.727 99.5457L817.725 99.6035ZM1303.5 104.941C1303.59 103.586 1303.66 102.235 1303.69 100.889L1304.69 100.914C1304.66 102.275 1304.59 103.642 1304.49 105.012L1303.5 104.941ZM489.009 101.923L489.871 105.724L488.895 105.945L488.033 102.145L489.009 101.923ZM304.285 106.465L304.45 102.544L305.449 102.586L305.285 106.507L304.285 106.465ZM640.831 108.226L640.968 104.124L641.967 104.157L641.831 108.259L640.831 108.226ZM1007.63 109.267C1007.76 107.965 1007.87 106.666 1007.96 105.371L1008.95 105.435C1008.87 106.744 1008.76 108.056 1008.62 109.372L1007.63 109.267ZM817.286 107.183L817.066 110.973L816.068 110.915L816.287 107.125L817.286 107.183ZM1124.7 107.161C1124.77 108.495 1124.86 109.833 1124.98 111.176L1123.99 111.266C1123.86 109.909 1123.77 108.556 1123.71 107.208L1124.7 107.161ZM1302.85 110.999C1302.95 110.325 1303.03 109.652 1303.11 108.98L1304.11 109.097C1304.03 109.777 1303.94 110.458 1303.84 111.139L1303.71 112.053L1302.72 111.913L1302.85 110.999ZM490.733 109.525L491.595 113.325L490.619 113.547L489.757 109.746L490.733 109.525ZM303.956 114.308L304.121 110.386L305.12 110.428L304.955 114.35L303.956 114.308ZM640.558 116.429L640.695 112.328L641.694 112.361L641.558 116.463L640.558 116.429ZM1006.83 115.084C1006.94 114.436 1007.04 113.79 1007.14 113.144L1008.13 113.289C1008.03 113.941 1007.93 114.594 1007.82 115.248L1007.49 117.223L1006.5 117.058L1006.83 115.084ZM1302.33 114.653L1302.46 113.74L1303.45 113.88L1303.32 114.793C1303.23 115.447 1303.15 116.1 1303.07 116.752L1302.08 116.633C1302.15 115.975 1302.24 115.315 1302.33 114.653ZM816.847 114.763L816.627 118.552L815.629 118.494L815.848 114.705L816.847 114.763ZM1125.44 115.181C1125.61 116.508 1125.82 117.839 1126.06 119.172L1125.08 119.349C1124.84 118.002 1124.63 116.657 1124.44 115.315L1125.44 115.181ZM492.457 117.126L493.319 120.927L492.344 121.148L491.481 117.347L492.457 117.126ZM303.627 122.151L303.792 118.229L304.791 118.271L304.626 122.193L303.627 122.151ZM640.286 124.633L640.422 120.531L641.421 120.564L641.285 124.666L640.286 124.633ZM1301.48 124.535C1301.52 123.219 1301.59 121.896 1301.69 120.566L1302.69 120.641C1302.59 121.956 1302.52 123.265 1302.48 124.566L1301.48 124.535ZM1005.19 124.955L1005.85 121.006L1006.83 121.171L1006.17 125.119L1005.19 124.955ZM816.407 122.342L816.188 126.132L815.189 126.074L815.409 122.284L816.407 122.342ZM1126.86 123.113C1127.01 123.77 1127.16 124.428 1127.32 125.087L1127.8 127.019L1126.83 127.258L1126.35 125.326C1126.19 124.661 1126.03 123.996 1125.88 123.331L1126.86 123.113ZM494.181 124.728L495.043 128.528L494.068 128.75L493.206 124.949L494.181 124.728ZM303.298 129.994L303.462 126.072L304.461 126.114L304.297 130.035L303.298 129.994ZM1301.6 132.45C1301.52 131.141 1301.47 129.822 1301.45 128.495L1302.45 128.481C1302.47 129.793 1302.52 131.096 1302.59 132.39L1301.6 132.45ZM640.013 132.836L640.149 128.734L641.149 128.768L641.012 132.869L640.013 132.836ZM1003.87 132.852L1004.53 128.903L1005.51 129.068L1004.85 133.016L1003.87 132.852ZM815.968 129.922L815.749 133.711L814.75 133.653L814.97 129.864L815.968 129.922ZM1128.75 130.882L1129.71 134.746L1128.73 134.985L1127.78 131.122L1128.75 130.882ZM495.905 132.329L496.767 136.13L495.792 136.351L494.93 132.55L495.905 132.329ZM302.968 137.836L303.133 133.915L304.132 133.957L303.967 137.878L302.968 137.836ZM1302.44 140.337C1302.24 139.038 1302.07 137.728 1301.93 136.408L1302.92 136.303C1303.06 137.607 1303.23 138.901 1303.42 140.186L1302.44 140.337ZM1002.55 140.749L1003.21 136.8L1004.19 136.965L1003.54 140.913L1002.55 140.749ZM639.808 138.989L639.876 136.938L640.876 136.971L640.807 139.022C640.786 139.674 640.771 140.325 640.764 140.974L639.764 140.963C639.771 140.306 639.786 139.648 639.808 138.989ZM815.529 137.501L815.309 141.291L814.311 141.233L814.531 137.443L815.529 137.501ZM1130.66 138.609L1131.61 142.472L1130.64 142.712L1129.69 138.848L1130.66 138.609ZM497.629 139.93L498.491 143.731L497.516 143.952L496.654 140.152L497.629 139.93ZM302.639 145.679L302.804 141.758L303.803 141.8L303.638 145.721L302.639 145.679ZM1304 148.108C1303.68 146.829 1303.39 145.538 1303.13 144.235L1304.11 144.037C1304.37 145.325 1304.66 146.601 1304.97 147.865L1304 148.108ZM1001.23 148.646L1001.89 144.697L1002.88 144.862L1002.22 148.81L1001.23 148.646ZM640.024 148.823C639.923 147.521 639.85 146.212 639.807 144.896L640.806 144.863C640.849 146.164 640.921 147.459 641.021 148.745L640.024 148.823ZM815.09 145.081L814.98 146.975C814.94 147.663 814.893 148.349 814.837 149.033L813.84 148.952C813.895 148.276 813.942 147.598 813.982 146.918L814.092 145.023L815.09 145.081ZM1132.56 146.336L1133.51 150.199L1132.54 150.439L1131.59 146.575L1132.56 146.336ZM499.353 147.532L500.215 151.333L499.24 151.554L498.378 147.753L499.353 147.532ZM302.31 153.522L302.474 149.601L303.474 149.643L303.309 153.564L302.31 153.522ZM1306.29 155.693C1305.85 154.452 1305.44 153.197 1305.06 151.929L1306.01 151.641C1306.39 152.894 1306.8 154.134 1307.23 155.36L1306.29 155.693ZM999.913 156.543L1000.57 152.594L1001.56 152.759L1000.9 156.707L999.913 156.543ZM640.985 156.633C640.767 155.343 640.578 154.044 640.417 152.736L641.409 152.614C641.568 153.907 641.756 155.191 641.972 156.466L640.985 156.633ZM814.409 153.123C814.234 154.489 814.028 155.845 813.791 157.19L812.806 157.017C813.04 155.687 813.244 154.347 813.417 152.996L814.409 153.123ZM1134.47 154.063L1135.42 157.926L1134.45 158.165L1133.5 154.302L1134.47 154.063ZM501.077 155.133L501.939 158.934L500.964 159.155L500.102 155.355L501.077 155.133ZM301.98 161.365L302.145 157.443L303.144 157.485L302.98 161.407L301.98 161.365ZM1309.27 163.04C1308.72 161.843 1308.19 160.63 1307.7 159.403L1308.62 159.026C1309.11 160.239 1309.63 161.438 1310.18 162.621L1309.27 163.04ZM642.647 164.326C642.313 163.061 642.007 161.785 641.729 160.498L642.707 160.287C642.981 161.559 643.284 162.82 643.614 164.07L642.647 164.326ZM998.594 164.439L999.253 160.491L1000.24 160.656L999.581 164.604L998.594 164.439ZM812.983 161.223C812.681 162.566 812.349 163.896 811.987 165.214L811.022 164.949C811.38 163.646 811.709 162.331 812.008 161.004L812.983 161.223ZM1136.37 161.789L1137.32 165.653L1136.35 165.892L1135.4 162.029L1136.37 161.789ZM502.801 162.735L503.663 166.535L502.688 166.757L501.826 162.956L502.801 162.735ZM301.651 169.208L301.816 165.286L302.815 165.328L302.65 169.25L301.651 169.208ZM1312.93 170.073C1312.26 168.931 1311.63 167.773 1311.02 166.598L1311.91 166.137C1312.51 167.298 1313.14 168.443 1313.79 169.572L1312.93 170.073ZM644.997 171.835C644.55 170.605 644.13 169.362 643.737 168.107L644.691 167.808C645.08 169.049 645.495 170.277 645.937 171.493L644.997 171.835ZM997.276 172.336L997.935 168.388L998.921 168.553L998.262 172.501L997.276 172.336ZM810.803 169.154C810.376 170.461 809.92 171.754 809.434 173.033L808.499 172.678C808.979 171.414 809.43 170.136 809.852 168.843L810.803 169.154ZM1138.28 169.516L1139.23 173.38L1138.26 173.619L1137.31 169.756L1138.28 169.516ZM504.525 170.336L504.956 172.237C505.104 172.889 505.245 173.541 505.38 174.193L504.401 174.396C504.267 173.75 504.127 173.104 503.981 172.458L503.55 170.557L504.525 170.336ZM1317.21 176.743C1316.45 175.666 1315.71 174.571 1314.99 173.458L1315.83 172.917C1316.54 174.017 1317.27 175.1 1318.03 176.164L1317.21 176.743ZM301.322 177.051L301.487 173.129L302.486 173.171L302.321 177.093L301.322 177.051ZM648.015 179.101C647.459 177.915 646.928 176.715 646.424 175.502L647.347 175.118C647.846 176.318 648.37 177.504 648.92 178.676L648.015 179.101ZM995.958 180.233L996.617 176.285L997.603 176.45L996.944 180.398L995.958 180.233ZM807.884 176.844C807.337 178.104 806.76 179.348 806.156 180.577L805.259 180.135C805.856 178.921 806.426 177.691 806.967 176.445L807.884 176.844ZM1140.18 177.243L1141.13 181.106L1140.16 181.346L1139.21 177.482L1140.18 177.243ZM506.114 178.104C506.335 179.422 506.53 180.739 506.7 182.053L505.708 182.181C505.54 180.879 505.347 179.575 505.127 178.27L506.114 178.104ZM1322.08 182.993C1321.22 181.989 1320.39 180.965 1319.58 179.922L1320.36 179.307C1321.17 180.339 1321.99 181.351 1322.84 182.343L1322.08 182.993ZM300.993 184.893L301.157 180.972L302.156 181.014L301.992 184.935L300.993 184.893ZM651.675 186.066C651.014 184.934 650.378 183.787 649.767 182.624L650.652 182.159C651.256 183.308 651.885 184.443 652.539 185.561L651.675 186.066ZM804.254 184.224C803.591 185.427 802.9 186.612 802.182 187.778L801.331 187.254C802.04 186.101 802.723 184.93 803.379 183.741L804.254 184.224ZM994.639 188.13L995.298 184.182L996.285 184.347L995.625 188.295L994.639 188.13ZM1142.09 184.97L1143.04 188.833L1142.07 189.073L1141.11 185.209L1142.09 184.97ZM1327.5 188.778C1326.56 187.856 1325.63 186.912 1324.73 185.947L1325.46 185.263C1326.35 186.217 1327.26 187.15 1328.2 188.062L1327.5 188.778ZM507.134 186.017C507.254 187.345 507.347 188.669 507.415 189.99L506.416 190.042C506.349 188.733 506.257 187.422 506.138 186.107L507.134 186.017ZM300.746 190.776L300.828 188.815L301.827 188.857L301.745 190.818C301.717 191.486 301.695 192.152 301.68 192.817L300.68 192.795C300.696 192.123 300.717 191.45 300.746 190.776ZM655.946 192.675C655.186 191.607 654.449 190.521 653.737 189.418L654.577 188.876C655.281 189.966 656.009 191.039 656.761 192.095L655.946 192.675ZM799.946 191.231C799.173 192.365 798.375 193.48 797.551 194.575L796.752 193.974C797.566 192.892 798.356 191.789 799.12 190.668L799.946 191.231ZM1333.41 194.054C1332.39 193.22 1331.38 192.362 1330.4 191.482L1331.06 190.736C1332.04 191.606 1333.03 192.454 1334.05 193.279L1333.41 194.054ZM993.321 196.027L993.98 192.079L994.966 192.243L994.307 196.192L993.321 196.027ZM1143.99 192.697L1144.94 196.56L1143.97 196.799L1143.02 192.936L1143.99 192.697ZM507.543 193.976C507.559 195.31 507.55 196.64 507.515 197.965L506.516 197.939C506.55 196.626 506.559 195.309 506.543 193.988L507.543 193.976ZM660.789 198.876C659.937 197.88 659.106 196.864 658.298 195.83L659.086 195.214C659.885 196.237 660.706 197.241 661.549 198.226L660.789 198.876ZM1339.78 198.781C1338.68 198.041 1337.6 197.276 1336.54 196.489L1337.14 195.686C1338.19 196.465 1339.25 197.22 1340.34 197.952L1339.78 198.781ZM300.802 200.834C300.731 199.499 300.685 198.157 300.664 196.808L301.664 196.793C301.684 198.129 301.73 199.458 301.801 200.78L300.802 200.834ZM795.002 197.804C794.126 198.86 793.227 199.896 792.304 200.909L791.565 200.236C792.477 199.234 793.366 198.21 794.231 197.166L795.002 197.804ZM1439.29 199.682L1435.26 201.333L1434.88 200.407L1438.91 198.756L1439.29 199.682ZM992.332 201.95L992.662 199.976L993.648 200.14L993.318 202.115C993.208 202.778 993.105 203.441 993.011 204.102L992.021 203.961C992.116 203.292 992.22 202.622 992.332 201.95ZM1346.54 202.918C1345.38 202.279 1344.24 201.615 1343.11 200.925L1343.63 200.072C1344.75 200.754 1345.88 201.411 1347.02 202.043L1346.54 202.918ZM1145.9 200.423L1146.37 202.355C1146.54 203.031 1146.69 203.707 1146.84 204.382L1145.87 204.596C1145.72 203.929 1145.56 203.262 1145.4 202.595L1144.92 200.663L1145.9 200.423ZM666.166 204.621C665.227 203.704 664.31 202.767 663.413 201.809L664.144 201.125C665.03 202.072 665.937 203 666.865 203.906L666.166 204.621ZM507.333 201.947C507.246 203.275 507.134 204.599 506.996 205.916L506.001 205.812C506.138 204.507 506.249 203.197 506.335 201.882L507.333 201.947ZM1431.23 202.984L1427.19 204.634L1426.82 203.709L1430.85 202.058L1431.23 202.984ZM789.465 203.886C788.495 204.855 787.503 205.803 786.49 206.726L785.816 205.987C786.818 205.074 787.799 204.138 788.758 203.179L789.465 203.886ZM1353.64 206.432C1352.43 205.9 1351.23 205.341 1350.05 204.755L1350.49 203.859C1351.66 204.438 1352.85 204.991 1354.04 205.517L1353.64 206.432ZM301.543 208.839C301.369 207.515 301.219 206.184 301.095 204.846L302.091 204.754C302.214 206.079 302.362 207.397 302.535 208.708L301.543 208.839ZM1423.16 206.285L1421.15 207.111C1420.53 207.364 1419.91 207.61 1419.29 207.848L1418.93 206.914C1419.54 206.679 1420.16 206.436 1420.77 206.186L1422.78 205.36L1423.16 206.285ZM672.032 209.865C671.016 209.035 670.018 208.182 669.041 207.308L669.707 206.563C670.674 207.427 671.66 208.269 672.665 209.09L672.032 209.865ZM1361.03 209.287C1359.78 208.867 1358.54 208.419 1357.31 207.944L1357.67 207.011C1358.88 207.481 1360.11 207.924 1361.35 208.339L1361.03 209.287ZM991.274 212.012C991.332 210.673 991.424 209.328 991.549 207.977L992.545 208.07C992.421 209.404 992.331 210.733 992.273 212.055L991.274 212.012ZM1415.57 209.185C1414.31 209.609 1413.04 210.002 1411.78 210.364L1411.5 209.403C1412.75 209.045 1414 208.656 1415.25 208.237L1415.57 209.185ZM1147.62 208.458C1147.84 209.831 1148.02 211.202 1148.17 212.57L1147.17 212.676C1147.03 211.326 1146.85 209.973 1146.63 208.618L1147.62 208.458ZM783.385 209.425C782.33 210.3 781.254 211.15 780.158 211.976L779.556 211.177C780.64 210.361 781.703 209.52 782.747 208.655L783.385 209.425ZM1368.66 211.454C1367.37 211.151 1366.09 210.819 1364.82 210.459L1365.1 209.497C1366.35 209.853 1367.61 210.181 1368.89 210.481L1368.66 211.454ZM506.504 209.876C506.314 211.194 506.099 212.506 505.858 213.811L504.875 213.63C505.113 212.338 505.326 211.039 505.514 209.733L506.504 209.876ZM1407.95 211.369C1406.65 211.676 1405.36 211.953 1404.08 212.198L1403.89 211.216C1405.16 210.973 1406.44 210.7 1407.71 210.396L1407.95 211.369ZM1376.45 212.907C1375.14 212.725 1373.83 212.513 1372.54 212.271L1372.72 211.288C1374 211.527 1375.29 211.737 1376.59 211.917L1376.45 212.907ZM678.344 214.564C677.256 213.828 676.187 213.068 675.135 212.285L675.733 211.483C676.772 212.257 677.83 213.008 678.904 213.736L678.344 214.564ZM1400.16 212.852C1398.84 213.04 1397.53 213.197 1396.22 213.322L1396.13 212.327C1397.42 212.203 1398.72 212.048 1400.02 211.862L1400.16 212.852ZM1384.34 213.629C1383.02 213.57 1381.7 213.48 1380.39 213.361L1380.48 212.365C1381.78 212.483 1383.08 212.572 1384.39 212.63L1384.34 213.629ZM1392.28 213.609C1390.95 213.675 1389.63 213.709 1388.31 213.712L1388.3 212.712C1389.61 212.709 1390.92 212.675 1392.23 212.611L1392.28 213.609ZM302.907 216.768C302.629 215.459 302.375 214.142 302.147 212.815L303.133 212.646C303.359 213.959 303.61 215.264 303.885 216.56L302.907 216.768ZM776.815 214.373C775.683 215.145 774.532 215.892 773.364 216.611L772.839 215.76C773.995 215.048 775.132 214.31 776.251 213.547L776.815 214.373ZM685.05 218.68C683.901 218.044 682.768 217.383 681.651 216.698L682.174 215.845C683.278 216.523 684.398 217.176 685.534 217.805L685.05 218.68ZM991.329 220.114C991.252 218.773 991.209 217.423 991.2 216.065L992.2 216.059C992.209 217.399 992.251 218.732 992.327 220.057L991.329 220.114ZM1148.49 216.707C1148.56 218.094 1148.6 219.477 1148.59 220.855L1147.59 220.851C1147.6 219.491 1147.56 218.127 1147.49 216.758L1148.49 216.707ZM505.061 217.716C504.769 219.015 504.453 220.305 504.112 221.587L503.145 221.331C503.483 220.061 503.796 218.783 504.085 217.497L505.061 217.716ZM769.811 218.685C768.612 219.348 767.397 219.983 766.165 220.59L765.723 219.693C766.941 219.093 768.142 218.465 769.327 217.81L769.811 218.685ZM692.098 222.176C690.896 221.646 689.708 221.09 688.535 220.508L688.979 219.612C690.139 220.187 691.313 220.737 692.502 221.261L692.098 222.176ZM304.886 224.558C304.506 223.277 304.151 221.985 303.82 220.683L304.79 220.437C305.117 221.726 305.469 223.005 305.845 224.274L304.886 224.558ZM762.433 222.321C761.179 222.868 759.909 223.386 758.624 223.875L758.269 222.94C759.538 222.457 760.793 221.945 762.034 221.405L762.433 222.321ZM699.433 225.023C698.187 224.603 696.954 224.156 695.734 223.682L696.095 222.75C697.302 223.218 698.521 223.66 699.753 224.075L699.433 225.023ZM992.199 228.161C991.986 226.834 991.807 225.496 991.662 224.149L992.656 224.042C992.8 225.372 992.977 226.693 993.186 228.003L992.199 228.161ZM754.746 225.247C753.446 225.673 752.133 226.069 750.808 226.434L750.542 225.471C751.852 225.109 753.15 224.717 754.435 224.297L754.746 225.247ZM1148.46 225.002C1148.37 226.387 1148.25 227.766 1148.1 229.135L1147.1 229.021C1147.26 227.669 1147.38 226.309 1147.46 224.942L1148.46 225.002ZM503.013 225.422C502.621 226.693 502.206 227.956 501.767 229.209L500.823 228.878C501.258 227.637 501.669 226.387 502.057 225.128L503.013 225.422ZM706.997 227.195C705.717 226.889 704.448 226.555 703.19 226.194L703.466 225.233C704.709 225.59 705.964 225.92 707.229 226.222L706.997 227.195ZM746.818 227.435C745.484 227.736 744.14 228.006 742.785 228.246L742.611 227.261C743.95 227.024 745.279 226.757 746.597 226.459L746.818 227.435ZM714.729 228.675C713.425 228.486 712.13 228.268 710.846 228.022L711.034 227.04C712.304 227.283 713.583 227.498 714.872 227.685L714.729 228.675ZM738.718 228.866C737.364 229.04 736 229.184 734.628 229.295L734.547 228.299C735.904 228.188 737.252 228.047 738.591 227.874L738.718 228.866ZM307.474 232.177C306.994 230.928 306.538 229.667 306.105 228.394L307.052 228.073C307.48 229.332 307.932 230.581 308.407 231.818L307.474 232.177ZM722.554 229.455C721.239 229.383 719.932 229.282 718.633 229.152L718.732 228.157C720.016 228.285 721.309 228.385 722.609 228.456L722.554 229.455ZM730.522 229.534C729.836 229.557 729.149 229.573 728.46 229.581C727.8 229.589 727.142 229.589 726.485 229.582L726.496 228.583C727.145 228.589 727.796 228.589 728.448 228.581C729.13 228.573 729.809 228.558 730.487 228.534L730.522 229.534ZM993.881 236.078C993.534 234.778 993.22 233.465 992.939 232.14L993.917 231.932C994.195 233.24 994.505 234.537 994.847 235.821L993.881 236.078ZM500.376 232.944C499.888 234.182 499.376 235.408 498.842 236.624L497.926 236.222C498.456 235.018 498.962 233.803 499.446 232.577L500.376 232.944ZM1147.51 233.243C1147.27 234.609 1147 235.965 1146.69 237.311L1145.71 237.087C1146.02 235.76 1146.29 234.421 1146.52 233.073L1147.51 233.243ZM310.649 239.564C310.072 238.356 309.519 237.135 308.989 235.901L309.907 235.506C310.432 236.728 310.98 237.937 311.551 239.133L310.649 239.564ZM996.36 243.788C995.883 242.528 995.437 241.253 995.022 239.965L995.974 239.659C996.384 240.931 996.824 242.19 997.295 243.434L996.36 243.788ZM497.167 240.243C496.585 241.439 495.981 242.623 495.355 243.794L494.473 243.322C495.093 242.162 495.692 240.99 496.268 239.805L497.167 240.243ZM1145.65 241.328C1145.27 242.659 1144.84 243.978 1144.39 245.282L1143.45 244.953C1143.89 243.665 1144.31 242.364 1144.69 241.051L1145.65 241.328ZM314.393 246.683C313.724 245.523 313.076 244.349 312.452 243.161L313.337 242.695C313.955 243.872 314.596 245.035 315.259 246.184L314.393 246.683ZM493.408 247.273C492.737 248.42 492.044 249.555 491.33 250.675L490.486 250.137C491.194 249.028 491.88 247.904 492.545 246.768L493.408 247.273ZM999.604 251.205C999.002 249.999 998.43 248.776 997.888 247.537L998.804 247.137C999.339 248.36 999.905 249.568 1000.5 250.758L999.604 251.205ZM1142.92 249.161C1142.39 250.442 1141.83 251.706 1141.23 252.954L1140.33 252.523C1140.92 251.292 1141.47 250.044 1141.99 248.781L1142.92 249.161ZM318.679 253.487C317.921 252.382 317.185 251.262 316.47 250.127L317.316 249.594C318.024 250.718 318.753 251.828 319.504 252.922L318.679 253.487ZM489.122 253.995C488.366 255.088 487.588 256.166 486.79 257.228L485.991 256.628C486.781 255.575 487.551 254.508 488.3 253.426L489.122 253.995ZM1003.57 258.258C1002.86 257.118 1002.16 255.959 1001.5 254.781L1002.37 254.291C1003.03 255.453 1003.71 256.599 1004.42 257.725L1003.57 258.258ZM323.48 259.94C322.639 258.897 321.818 257.837 321.017 256.76L321.819 256.163C322.612 257.229 323.426 258.279 324.258 259.312L323.48 259.94ZM1139.34 256.648C1138.68 257.863 1137.98 259.059 1137.26 260.235L1136.41 259.708C1137.12 258.548 1137.81 257.368 1138.47 256.169L1139.34 256.648ZM484.336 260.37C483.498 261.402 482.641 262.417 481.763 263.416L481.012 262.756C481.881 261.767 482.73 260.761 483.56 259.74L484.336 260.37ZM1008.23 264.883C1007.4 263.819 1006.6 262.733 1005.82 261.628L1006.64 261.053C1007.4 262.145 1008.2 263.217 1009.02 264.268L1008.23 264.883ZM328.764 266.002C327.845 265.026 326.945 264.032 326.063 263.022L326.817 262.364C327.69 263.366 328.582 264.35 329.492 265.316L328.764 266.002ZM1134.98 263.702C1134.19 264.836 1133.36 265.95 1132.51 267.04L1131.72 266.424C1132.56 265.348 1133.38 264.25 1134.16 263.13L1134.98 263.702ZM479.077 266.361C478.163 267.325 477.23 268.272 476.279 269.201L475.58 268.486C476.522 267.565 477.446 266.628 478.351 265.673L479.077 266.361ZM1013.52 271.013C1012.58 270.036 1011.68 269.036 1010.8 268.013L1011.55 267.36C1012.42 268.37 1013.32 269.358 1014.24 270.324L1013.52 271.013ZM334.5 271.638C333.509 270.736 332.534 269.815 331.578 268.875L332.279 268.162C333.226 269.093 334.191 270.005 335.173 270.899L334.5 271.638ZM1129.87 270.239C1128.96 271.28 1128.02 272.297 1127.05 273.288L1126.34 272.591C1127.29 271.612 1128.22 270.608 1129.12 269.581L1129.87 270.239ZM473.373 271.932C472.388 272.823 471.385 273.695 470.365 274.549L469.724 273.782C470.734 272.937 471.727 272.073 472.702 271.19L473.373 271.932ZM1019.38 276.593C1018.36 275.712 1017.36 274.806 1016.38 273.875L1017.07 273.151C1018.03 274.07 1019.02 274.965 1020.03 275.835L1019.38 276.593ZM340.654 276.817C339.595 275.993 338.553 275.15 337.527 274.287L338.171 273.522C339.187 274.376 340.219 275.212 341.268 276.027L340.654 276.817ZM1124.08 276.18C1123.06 277.115 1122.02 278.023 1120.95 278.904L1120.31 278.132C1121.37 277.263 1122.4 276.367 1123.4 275.444L1124.08 276.18ZM467.26 277.047C466.209 277.859 465.142 278.652 464.059 279.425L463.478 278.611C464.551 277.845 465.608 277.061 466.648 276.256L467.26 277.047ZM1025.77 281.566C1024.66 280.79 1023.58 279.987 1022.51 279.158L1023.13 278.369C1024.18 279.188 1025.25 279.981 1026.34 280.747L1025.77 281.566ZM347.188 281.504C346.068 280.765 344.964 280.005 343.875 279.224L344.458 278.411C345.536 279.185 346.63 279.938 347.739 280.67L347.188 281.504ZM1117.67 281.451C1116.56 282.268 1115.42 283.056 1114.26 283.814L1113.71 282.976C1114.86 282.228 1115.98 281.451 1117.08 280.645L1117.67 281.451ZM460.767 281.677C459.658 282.405 458.533 283.113 457.393 283.799L456.877 282.943C458.006 282.263 459.12 281.562 460.219 280.841L460.767 281.677ZM354.066 285.673C352.892 285.023 351.732 284.35 350.586 283.656L351.105 282.801C352.239 283.488 353.388 284.155 354.55 284.799L354.066 285.673ZM1032.62 285.88C1031.44 285.218 1030.28 284.527 1029.14 283.808L1029.67 282.962C1030.8 283.672 1031.94 284.355 1033.11 285.009L1032.62 285.88ZM453.939 285.788C452.777 286.428 451.6 287.046 450.409 287.643L449.961 286.748C451.141 286.158 452.306 285.546 453.457 284.912L453.939 285.788ZM1110.72 285.984C1109.53 286.672 1108.31 287.33 1107.07 287.955L1106.62 287.062C1107.84 286.446 1109.05 285.797 1110.22 285.117L1110.72 285.984ZM361.245 289.295C360.024 288.738 358.815 288.157 357.62 287.554L358.07 286.661C359.254 287.259 360.451 287.833 361.661 288.385L361.245 289.295ZM1039.86 289.489C1038.62 288.948 1037.4 288.376 1036.2 287.776L1036.64 286.88C1037.83 287.474 1039.04 288.038 1040.26 288.573L1039.86 289.489ZM446.807 289.359C445.6 289.905 444.38 290.43 443.146 290.931L442.77 290.005C443.991 289.508 445.199 288.989 446.394 288.448L446.807 289.359ZM1103.32 289.721C1102.06 290.273 1100.77 290.792 1099.47 291.277L1099.12 290.34C1100.41 289.861 1101.67 289.349 1102.92 288.805L1103.32 289.721ZM368.687 292.346C367.426 291.886 366.176 291.402 364.938 290.894L365.317 289.969C366.543 290.471 367.781 290.951 369.03 291.407L368.687 292.346ZM1047.44 292.35C1046.15 291.937 1044.87 291.492 1043.61 291.015L1043.97 290.08C1045.21 290.55 1046.47 290.99 1047.74 291.398L1047.44 292.35ZM439.426 292.36C438.179 292.812 436.92 293.24 435.649 293.645L435.345 292.692C436.604 292.291 437.851 291.867 439.085 291.42L439.426 292.36ZM1095.54 292.618C1094.23 293.027 1092.9 293.402 1091.55 293.742L1091.31 292.773C1092.64 292.437 1093.95 292.067 1095.25 291.663L1095.54 292.618ZM1055.26 294.43C1053.94 294.149 1052.63 293.835 1051.33 293.49L1051.58 292.523C1052.87 292.865 1054.16 293.174 1055.47 293.451L1055.26 294.43ZM376.344 294.805C375.05 294.444 373.765 294.059 372.491 293.65L372.796 292.698C374.058 293.103 375.33 293.484 376.612 293.841L376.344 294.805ZM1087.5 294.647C1086.82 294.78 1086.14 294.904 1085.45 295.019C1084.78 295.131 1084.11 295.235 1083.44 295.331L1083.3 294.341C1083.96 294.246 1084.63 294.144 1085.29 294.033C1085.97 293.919 1086.64 293.797 1087.31 293.666L1087.5 294.647ZM431.827 294.782C430.552 295.134 429.265 295.463 427.968 295.768L427.739 294.795C429.024 294.493 430.298 294.167 431.56 293.818L431.827 294.782ZM1063.26 295.702C1061.91 295.557 1060.57 295.379 1059.24 295.167L1059.4 294.18C1060.71 294.389 1062.03 294.565 1063.36 294.708L1063.26 295.702ZM1079.43 295.805C1078.08 295.931 1076.73 296.024 1075.39 296.082L1075.35 295.083C1076.67 295.025 1078 294.934 1079.33 294.809L1079.43 295.805ZM384.171 296.654C382.853 296.397 381.543 296.115 380.243 295.807L380.473 294.834C381.76 295.138 383.057 295.418 384.362 295.673L384.171 296.654ZM1071.34 296.159C1069.98 296.151 1068.63 296.108 1067.29 296.033L1067.35 295.034C1068.67 295.109 1070.01 295.151 1071.35 295.159L1071.34 296.159ZM424.07 296.607C422.769 296.861 421.458 297.091 420.137 297.297L419.983 296.309C421.291 296.105 422.59 295.877 423.878 295.626L424.07 296.607ZM392.12 297.884C390.783 297.731 389.453 297.551 388.132 297.347L388.284 296.359C389.593 296.561 390.91 296.739 392.234 296.891L392.12 297.884ZM416.195 297.835C415.533 297.913 414.87 297.984 414.204 298.05C413.532 298.116 412.861 298.175 412.192 298.228L412.113 297.231C412.776 297.179 413.441 297.12 414.106 297.055C414.766 296.99 415.423 296.919 416.078 296.842L416.195 297.835ZM400.136 298.488C398.793 298.44 397.455 298.365 396.125 298.265L396.2 297.267C397.517 297.367 398.842 297.441 400.172 297.489L400.136 298.488ZM408.185 298.469C406.838 298.524 405.495 298.553 404.158 298.556L404.156 297.556C405.48 297.553 406.81 297.524 408.144 297.47L408.185 298.469Z" fill="#4AC63F"/>
<path fill-rule="evenodd" clip-rule="evenodd" d="M561.864 0.999751C560.523 1.02967 559.192 1.09338 557.871 1.18998L557.798 0.192642C559.136 0.0948062 560.484 0.0302997 561.841 0L561.864 0.999751ZM567.871 1.09153C567.2 1.05617 566.53 1.02929 565.862 1.01078L565.89 0.0111685C566.566 0.0299072 567.244 0.0571194 567.924 0.0929089C568.608 0.128891 569.289 0.173477 569.968 0.226556L569.89 1.22351C569.219 1.17109 568.547 1.12706 567.871 1.09153ZM553.891 1.58356C552.559 1.74974 551.24 1.94949 549.932 2.18186L549.757 1.19729C551.082 0.961907 552.418 0.759584 553.767 0.591263L553.891 1.58356ZM577.885 2.26294C576.569 2.02239 575.241 1.81462 573.901 1.64055L574.03 0.648886C575.387 0.825174 576.732 1.0356 578.065 1.27923L577.885 2.26294ZM546.012 2.98392C544.707 3.28627 543.416 3.62139 542.139 3.98831L541.863 3.02719C543.157 2.6555 544.465 2.31602 545.786 2.00975L546.012 2.98392ZM585.731 4.12141C584.445 3.74538 583.145 3.40137 581.832 3.09034L582.063 2.11726C583.393 2.4323 584.709 2.78075 586.011 3.16163L585.731 4.12141ZM915.713 4.33672C914.37 4.29718 913.032 4.28597 911.699 4.30258L911.687 3.30266C913.033 3.28587 914.385 3.2972 915.742 3.33715L915.713 4.33672ZM907.682 4.43743C906.339 4.5109 905.004 4.61259 903.675 4.74195L903.578 3.74666C904.921 3.61593 906.271 3.51317 907.627 3.43893L907.682 4.43743ZM921.732 4.70236C921.061 4.64061 920.391 4.58598 919.722 4.53841L919.793 3.54093C920.469 3.589 921.146 3.64419 921.823 3.70657C922.483 3.76732 923.141 3.83457 923.797 3.90825L923.685 4.90199C923.036 4.82906 922.385 4.76249 921.732 4.70236ZM899.686 5.21602C898.357 5.40278 897.035 5.61732 895.722 5.85909L895.541 4.87562C896.868 4.6313 898.203 4.41448 899.547 4.22574L899.686 5.21602ZM538.325 5.19266C537.06 5.6284 535.811 6.09578 534.578 6.59378L534.204 5.66657C535.453 5.1621 536.718 4.68864 537.999 4.24723L538.325 5.19266ZM593.34 6.78463C592.1 6.27649 590.843 5.79924 589.57 5.35388L589.901 4.41002C591.189 4.86113 592.463 5.34455 593.719 5.85925L593.34 6.78463ZM931.41 6.08861C930.136 5.83953 928.852 5.61537 927.558 5.4167L927.71 4.42828C929.017 4.62902 930.314 4.85552 931.601 5.10719L931.41 6.08861ZM891.789 6.67018C890.482 6.9691 889.183 7.2952 887.895 7.64791L887.631 6.68341C888.933 6.32697 890.245 5.9974 891.567 5.69532L891.789 6.67018ZM939.019 7.90396C937.769 7.55071 936.507 7.22197 935.235 6.91835L935.467 5.94565C936.753 6.25246 938.028 6.58466 939.291 6.94164L939.019 7.90396ZM530.91 8.18766C529.699 8.75181 528.505 9.34615 527.329 9.96962L526.861 9.08616C528.051 8.45464 529.261 7.85261 530.488 7.28115L530.91 8.18766ZM600.632 10.2246C599.45 9.58986 598.249 8.98456 597.031 8.40975L597.458 7.50535C598.692 8.08758 599.908 8.70068 601.105 9.34362L600.632 10.2246ZM884.043 8.79139C882.765 9.20046 881.499 9.636 880.244 10.0974L879.899 9.15884C881.167 8.69256 882.447 8.25241 883.738 7.83901L884.043 8.79139ZM946.445 10.3381C945.229 9.88279 944 9.45133 942.758 9.04436L943.07 8.09411C944.324 8.50538 945.567 8.94141 946.796 9.40157L946.445 10.3381ZM228.558 11.7907C227.243 11.7035 225.927 11.6482 224.61 11.6247L224.628 10.6248C225.961 10.6486 227.293 10.7046 228.624 10.7928L228.558 11.7907ZM876.504 11.5633C875.266 12.079 874.041 12.6202 872.829 13.1863L872.406 12.2803C873.63 11.7082 874.868 11.1613 876.119 10.6403L876.504 11.5633ZM220.659 11.6496C219.342 11.6898 218.026 11.7618 216.713 11.8655L216.634 10.8686C217.964 10.7636 219.295 10.6907 220.628 10.6501L220.659 11.6496ZM1221.59 11.9032C1220.24 11.8189 1218.89 11.7644 1217.56 11.739L1217.57 10.7392C1218.93 10.7648 1220.29 10.8199 1221.65 10.9051L1221.59 11.9032ZM1213.52 11.7506C1212.18 11.784 1210.84 11.847 1209.5 11.9388L1209.44 10.9412C1210.78 10.8483 1212.14 10.7847 1213.5 10.7509L1213.52 11.7506ZM953.651 13.3818C952.475 12.8263 951.284 12.2939 950.08 11.7853L950.469 10.8641C951.686 11.3781 952.889 11.9162 954.078 12.4776L953.651 13.3818ZM523.845 11.9343C522.699 12.6201 521.572 13.3344 520.466 14.0761L519.909 13.2455C521.029 12.4943 522.17 11.7708 523.331 11.0762L523.845 11.9343ZM236.408 12.6941C235.106 12.4801 233.801 12.2979 232.494 12.1474L232.608 11.1539C233.932 11.3063 235.253 11.4907 236.57 11.7074L236.408 12.6941ZM1227.61 12.4724C1226.94 12.3872 1226.27 12.3093 1225.6 12.2388L1225.7 11.2443C1226.38 11.3156 1227.06 11.3942 1227.74 11.4804C1228.42 11.5669 1229.1 11.6609 1229.78 11.7625L1229.63 12.7515C1228.96 12.651 1228.29 12.558 1227.61 12.4724ZM212.782 12.2717C211.476 12.4387 210.174 12.6373 208.876 12.8674L208.701 11.8828C210.015 11.6498 211.333 11.4488 212.655 11.2798L212.782 12.2717ZM1205.49 12.3054C1204.15 12.458 1202.82 12.64 1201.49 12.8506L1201.34 11.863C1202.67 11.6501 1204.02 11.4661 1205.38 11.3118L1205.49 12.3054ZM607.529 14.4028C606.418 13.6484 605.286 12.9219 604.134 12.2241L604.652 11.3689C605.819 12.0755 606.965 12.8114 608.09 13.5755L607.529 14.4028ZM244.132 14.3527C242.857 14.0134 241.575 13.7058 240.29 13.4297L240.499 12.452C241.801 12.7314 243.098 13.0429 244.389 13.3863L244.132 14.3527ZM1237.59 14.3235C1236.28 14.0017 1234.96 13.7088 1233.63 13.4456L1233.82 12.4645C1235.17 12.7308 1236.5 13.027 1237.83 13.3525L1237.59 14.3235ZM1197.53 13.573C1196.21 13.8441 1194.9 14.144 1193.61 14.4719L1193.36 13.5024C1194.67 13.1708 1196 12.8676 1197.33 12.5934L1197.53 13.573ZM205.003 13.6513C203.72 13.9435 202.442 14.267 201.172 14.6218L200.903 13.6586C202.189 13.2995 203.482 12.9721 204.781 12.6763L205.003 13.6513ZM869.227 14.9631C868.038 15.5812 866.863 16.2238 865.703 16.8903L865.205 16.0232C866.377 15.3497 867.565 14.7004 868.766 14.0758L869.227 14.9631ZM960.576 17.0107C959.45 16.3596 958.308 15.7307 957.152 15.1247L957.616 14.2389C958.785 14.8514 959.939 15.487 961.077 16.1449L960.576 17.0107ZM1245.37 16.6275C1244.09 16.1848 1242.81 15.7702 1241.5 15.3846L1241.79 14.4258C1243.1 14.8158 1244.41 15.2352 1245.69 15.6831L1245.37 16.6275ZM251.659 16.7516C250.422 16.2902 249.177 15.86 247.925 15.461L248.229 14.5082C249.496 14.9121 250.757 15.3476 252.009 15.8147L251.659 16.7516ZM1189.72 15.5479C1188.43 15.9363 1187.15 16.3526 1185.89 16.7961L1185.55 15.8525C1186.83 15.404 1188.13 14.9831 1189.43 14.5904L1189.72 15.5479ZM197.394 15.7764C196.145 16.1911 194.905 16.6367 193.675 17.113L193.314 16.1804C194.56 15.6982 195.815 15.2472 197.078 14.8274L197.394 15.7764ZM517.2 16.3889C516.131 17.1881 515.083 18.014 514.058 18.8653L513.419 18.0959C514.457 17.2338 515.519 16.3974 516.602 15.5879L517.2 16.3889ZM613.958 19.2709C612.93 18.4056 611.879 17.5663 610.806 16.7539L611.41 15.9567C612.496 16.7795 613.56 17.6296 614.601 18.5059L613.958 19.2709ZM1252.89 19.6499C1251.67 19.0891 1250.42 18.5556 1249.16 18.0501L1249.54 17.1221C1250.81 17.6334 1252.07 18.1731 1253.31 18.7404L1252.89 19.6499ZM1182.12 18.2139C1180.87 18.7157 1179.63 19.2444 1178.41 19.7993L1178 18.8889C1179.23 18.3279 1180.48 17.7933 1181.74 17.286L1182.12 18.2139ZM258.92 19.8691C257.732 19.2894 256.534 18.7405 255.327 18.2222L255.722 17.3033C256.944 17.8279 258.156 18.3836 259.359 18.9704L258.92 19.8691ZM190.025 18.6285C188.824 19.1618 187.633 19.7252 186.454 20.3188L186.005 19.4255C187.198 18.8247 188.403 18.2543 189.619 17.7146L190.025 18.6285ZM862.263 18.9644C861.131 19.6802 860.014 20.4195 858.913 21.1816L858.344 20.3595C859.456 19.5894 860.585 18.8424 861.729 18.119L862.263 18.9644ZM967.178 21.2C966.109 20.4576 965.022 19.7362 963.92 19.0366L964.456 18.1923C965.57 18.8992 966.667 19.6282 967.748 20.3785L967.178 21.2ZM1260.11 23.3664C1258.94 22.6925 1257.75 22.0445 1256.54 21.4235L1257 20.5345C1258.22 21.1628 1259.42 21.8182 1260.61 22.5L1260.11 23.3664ZM1174.78 21.549C1173.58 22.1596 1172.4 22.796 1171.23 23.4573L1170.74 22.5872C1171.92 21.9187 1173.11 21.2753 1174.32 20.6579L1174.78 21.549ZM511.045 21.4987C510.063 22.4022 509.105 23.3302 508.171 24.2816L507.457 23.581C508.403 22.6175 509.374 21.6777 510.368 20.7628L511.045 21.4987ZM264.149 22.6596C263.578 22.3277 263.004 22.0034 262.427 21.6866L262.909 20.81C263.493 21.1307 264.074 21.459 264.652 21.7949C265.241 22.1374 265.825 22.4865 266.404 22.8421L265.881 23.6942C265.309 23.3428 264.732 22.9979 264.149 22.6596ZM619.851 24.7744C618.917 23.8076 617.958 22.8648 616.975 21.9468L617.658 21.216C618.653 22.1456 619.625 23.1005 620.57 24.0796L619.851 24.7744ZM182.969 22.1807C181.825 22.8276 180.694 23.5039 179.577 24.2097L179.043 23.3642C180.174 22.6498 181.319 21.9651 182.476 21.3103L182.969 22.1807ZM973.414 25.9199C972.408 25.0918 971.385 24.2836 970.345 23.496L970.948 22.6986C972 23.4946 973.034 24.3113 974.049 25.1481L973.414 25.9199ZM855.659 23.5374C854.591 24.3455 853.54 25.1757 852.507 26.0276L851.871 25.2561C852.915 24.3953 853.977 23.5564 855.056 22.7399L855.659 23.5374ZM1266.94 27.7424C1265.84 26.9615 1264.72 26.2052 1263.57 25.4744L1264.11 24.6323C1265.27 25.3715 1266.4 26.1365 1267.52 26.9265L1266.94 27.7424ZM1167.77 25.5203C1166.63 26.2342 1165.5 26.9725 1164.4 27.7344L1163.83 26.911C1164.95 26.1408 1166.08 25.3945 1167.24 24.6728L1167.77 25.5203ZM272.531 28.246C271.464 27.4354 270.374 26.6489 269.261 25.8877L269.826 25.0625C270.952 25.833 272.055 26.6291 273.136 27.4497L272.531 28.246ZM176.289 26.3989C175.75 26.7768 175.214 27.1618 174.683 27.554L173.118 28.7087L172.524 27.904L174.089 26.7493C174.627 26.3523 175.169 25.9626 175.714 25.5802L176.289 26.3989ZM505.441 27.2068C504.556 28.2047 503.696 29.225 502.863 30.2665L502.082 29.6417C502.926 28.587 503.796 27.5538 504.693 26.5432L505.441 27.2068ZM625.149 30.8539C624.319 29.7959 623.461 28.7595 622.578 27.7461L623.332 27.0891C624.227 28.1155 625.095 29.165 625.936 30.2366L625.149 30.8539ZM979.24 31.1347C978.306 30.2269 977.352 29.3376 976.38 28.4676L977.047 27.7225C978.029 28.6016 978.993 29.5002 979.937 30.4176L979.24 31.1347ZM849.462 28.6478C848.466 29.5422 847.488 30.4576 846.53 31.3933L845.831 30.6779C846.8 29.7323 847.788 28.8074 848.794 27.9036L849.462 28.6478ZM1161.13 30.0945C1160.06 30.9053 1159 31.739 1157.97 32.5948L1157.33 31.8242C1158.38 30.9591 1159.44 30.1164 1160.53 29.2968L1161.13 30.0945ZM1273.33 32.7372C1272.31 31.8566 1271.26 30.9989 1270.19 30.1652L1270.81 29.3772C1271.89 30.2205 1272.95 31.088 1273.99 31.9787L1273.33 32.7372ZM278.699 33.4316C277.716 32.5188 276.709 31.6285 275.678 30.7619L276.322 29.9964C277.365 30.8737 278.385 31.7749 279.379 32.6989L278.699 33.4316ZM169.988 31.018L166.858 33.3273L166.264 32.5227L169.394 30.2133L169.988 31.018ZM500.443 33.4529C499.664 34.5349 498.912 35.6369 498.188 36.758L497.348 36.2155C498.081 35.0802 498.842 33.9642 499.632 32.8685L500.443 33.4529ZM984.621 36.8092C983.764 35.8276 982.886 34.8632 981.988 33.9168L982.714 33.2287C983.621 34.185 984.508 35.1594 985.374 36.1513L984.621 36.8092ZM629.794 37.4456C629.076 36.3072 628.33 35.1882 627.556 34.0899L628.374 33.5139C629.157 34.6262 629.913 35.7595 630.64 36.9125L629.794 37.4456ZM843.715 34.2596C842.798 35.2342 841.9 36.2285 841.023 37.2418L840.267 36.5875C841.153 35.5636 842.06 34.5589 842.987 33.5741L843.715 34.2596ZM1154.92 35.2305C1153.92 36.1315 1152.95 37.0539 1151.99 37.9968L1151.29 37.2846C1152.25 36.3314 1153.24 35.3991 1154.25 34.4884L1154.92 35.2305ZM1279.24 38.3051C1278.3 37.3327 1277.33 36.3815 1276.35 35.4526L1277.04 34.7252C1278.03 35.6648 1279 36.6268 1279.95 37.6104L1279.24 38.3051ZM163.728 35.6367L160.598 37.946L160.004 37.1413L163.134 34.832L163.728 35.6367ZM284.324 39.201C283.436 38.1951 282.522 37.2099 281.582 36.2464L282.298 35.5482C283.249 36.5236 284.175 37.5209 285.074 38.5391L284.324 39.201ZM989.521 42.9035C988.746 41.855 987.95 40.8224 987.133 39.8064L987.913 39.1798C988.738 40.2064 989.543 41.2498 990.325 42.3092L989.521 42.9035ZM157.467 40.2554L154.337 42.5647L153.744 41.76L156.874 39.4507L157.467 40.2554ZM496.104 40.1734C495.439 41.3284 494.803 42.5011 494.196 43.6906L493.305 43.2365C493.919 42.0318 494.564 40.8441 495.237 39.6744L496.104 40.1734ZM838.46 40.334C837.628 41.3817 836.817 42.4477 836.029 43.5313L835.22 42.943C836.017 41.8479 836.836 40.7708 837.677 39.7121L838.46 40.334ZM1149.18 40.8879C1148.26 41.8718 1147.37 42.8754 1146.5 43.8981L1145.74 43.2494C1146.62 42.2157 1147.52 41.2013 1148.45 40.2068L1149.18 40.8879ZM633.735 44.4812C633.138 43.2739 632.512 42.084 631.855 40.9124L632.728 40.4236C633.392 41.6103 634.027 42.8155 634.631 44.0382L633.735 44.4812ZM1284.6 44.3961C1283.75 43.3405 1282.88 42.3043 1281.99 41.2885L1282.74 40.6278C1283.64 41.6552 1284.52 42.7033 1285.38 43.771L1284.6 44.3961ZM289.353 45.4975C288.568 44.4084 287.756 43.3378 286.917 42.287L287.698 41.663C288.547 42.7266 289.37 43.8103 290.165 44.9128L289.353 45.4975ZM151.207 44.874L148.077 47.1834L147.483 46.3787L150.614 44.0693L151.207 44.874ZM993.908 49.3774C993.221 48.2688 992.512 47.1746 991.781 46.0955L992.609 45.5346C993.347 46.6248 994.064 47.7305 994.758 48.8507L993.908 49.3774ZM833.734 46.8283C832.994 47.942 832.276 49.0726 831.582 50.2195L830.726 49.7015C831.428 48.5425 832.154 47.4 832.902 46.2746L833.734 46.8283ZM1143.95 47.0219C1143.12 48.0813 1142.32 49.1587 1141.54 50.2536L1140.73 49.6734C1141.52 48.5668 1142.33 47.4777 1143.16 46.4069L1143.95 47.0219ZM492.471 47.3009C491.928 48.517 491.415 49.7485 490.933 50.9943L490.001 50.6339C490.488 49.372 491.008 48.1246 491.558 46.893L492.471 47.3009ZM1289.37 50.9571C1288.62 49.8273 1287.85 48.715 1287.06 47.6213L1287.87 47.033C1288.67 48.1392 1289.45 49.2641 1290.2 50.4069L1289.37 50.9571ZM636.926 51.8854C636.458 50.6222 635.958 49.3741 635.427 48.1419L636.345 47.7461C636.883 48.9941 637.39 50.2583 637.864 51.5378L636.926 51.8854ZM293.737 52.2591C293.063 51.0973 292.36 49.952 291.629 48.8242L292.468 48.2802C293.208 49.4217 293.92 50.5811 294.602 51.7571L293.737 52.2591ZM144.947 49.4927L141.817 51.802L141.223 50.9974L144.353 48.688L144.947 49.4927ZM997.752 56.1872C997.158 55.0259 996.54 53.8777 995.9 52.7431L996.771 52.2516C997.418 53.398 998.042 54.5583 998.642 55.7317L997.752 56.1872ZM1139.28 53.5865C1138.54 54.7132 1137.84 55.8564 1137.16 57.0152L1136.29 56.5082C1136.98 55.3368 1137.7 54.1812 1138.44 53.0424L1139.28 53.5865ZM829.575 53.699C828.931 54.8711 828.312 56.0587 827.717 57.2611L826.821 56.8176C827.422 55.6024 828.048 54.4023 828.698 53.2178L829.575 53.699ZM138.687 54.1114L135.557 56.4207L134.963 55.616L138.093 53.3067L138.687 54.1114ZM1293.51 57.9318C1292.88 56.7374 1292.21 55.5586 1291.52 54.3964L1292.38 53.8854C1293.08 55.0609 1293.75 56.2532 1294.4 57.4613L1293.51 57.9318ZM489.588 54.7614C489.173 56.0258 488.79 57.3033 488.439 58.5928L487.474 58.3305C487.829 57.0243 488.218 55.7303 488.638 54.4496L489.588 54.7614ZM297.434 59.4196C296.877 58.1964 296.29 56.9874 295.674 55.7938L296.563 55.335C297.186 56.5433 297.781 57.767 298.344 59.0052L297.434 59.4196ZM639.331 59.5805C638.997 58.2744 638.629 56.9811 638.229 55.7016L639.183 55.4033C639.589 56.6994 639.961 58.0093 640.3 59.3322L639.331 59.5805ZM132.427 58.7301L129.297 61.0394L128.703 60.2347L131.833 57.9254L132.427 58.7301ZM1001.02 63.2888C1000.53 62.0822 1000.01 60.8871 999.461 59.7042L1000.37 59.2857C1000.92 60.481 1001.45 61.6886 1001.95 62.9079L1001.02 63.2888ZM1135.19 60.534C1134.56 61.7198 1133.96 62.9205 1133.38 64.1352L1132.48 63.7057C1133.06 62.4778 1133.67 61.264 1134.31 60.0653L1135.19 60.534ZM826.012 60.8998C825.471 62.1209 824.955 63.3561 824.464 64.6048L823.534 64.2391C824.029 62.9772 824.551 61.7289 825.097 60.4948L826.012 60.8998ZM1297 65.2612C1296.47 64.0121 1295.92 62.7767 1295.34 61.556L1296.24 61.1271C1296.83 62.3618 1297.39 63.6114 1297.92 64.8748L1297 65.2612ZM487.491 62.4784C487.209 63.7779 486.96 65.0881 486.746 66.4081L485.759 66.2474C485.976 64.9102 486.228 63.5829 486.514 62.2666L487.491 62.4784ZM126.167 63.3487L124.602 64.5034C124.058 64.9044 123.513 65.3018 122.966 65.6957L122.382 64.8842C122.925 64.4925 123.468 64.0974 124.008 63.6987L125.573 62.544L126.167 63.3487ZM300.408 66.9095C299.974 65.6366 299.509 64.3757 299.013 63.1278L299.943 62.7588C300.444 64.022 300.915 65.2983 301.354 66.5868L300.408 66.9095ZM640.923 67.484C640.726 66.149 640.495 64.8245 640.23 63.5115L641.21 63.314C641.478 64.644 641.713 65.9856 641.912 67.3377L640.923 67.484ZM1003.7 70.6368C1003.31 69.3926 1002.89 68.1585 1002.44 66.9352L1003.38 66.5927C1003.83 67.829 1004.26 69.0761 1004.66 70.3334L1003.7 70.6368ZM119.664 68.0166C118.551 68.7798 117.431 69.5287 116.305 70.2634L115.759 69.4258C116.878 68.6954 117.992 67.9507 119.098 67.1919L119.664 68.0166ZM1131.73 67.8113C1131.21 69.0472 1130.71 70.2962 1130.24 71.5575L1129.31 71.2095C1129.78 69.9343 1130.28 68.6716 1130.81 67.4221L1131.73 67.8113ZM823.076 68.3725C822.641 69.6347 822.232 70.9095 821.849 72.1964L820.891 71.9112C821.278 70.6107 821.691 69.3223 822.13 68.0468L823.076 68.3725ZM1299.78 72.883C1299.37 71.5898 1298.94 70.3083 1298.48 69.0395L1299.41 68.6966C1299.88 69.9801 1300.32 71.2763 1300.73 72.5844L1299.78 72.883ZM486.206 70.3715C486.061 71.6922 485.949 73.0215 485.873 74.3582L484.874 74.3009C484.952 72.9468 485.065 71.6003 485.212 70.2624L486.206 70.3715ZM302.628 74.6562C302.322 73.3458 301.983 72.0451 301.614 70.7551L302.575 70.4795C302.949 71.7853 303.292 73.102 303.602 74.4285L302.628 74.6562ZM641.688 75.5103C641.629 74.1606 641.536 72.8193 641.409 71.4872L642.405 71.3924C642.533 72.7416 642.628 74.1001 642.687 75.4669L641.688 75.5103ZM112.901 72.428C111.754 73.1392 110.601 73.8359 109.441 74.5181L108.934 73.6561C110.087 72.9779 111.234 72.2852 112.375 71.5781L112.901 72.428ZM1005.76 78.1773C1005.47 76.9046 1005.15 75.6404 1004.81 74.3855L1005.78 74.1218C1006.12 75.39 1006.44 76.6675 1006.74 77.9537L1005.76 78.1773ZM1128.92 75.3676C1128.51 76.6442 1128.13 77.9322 1127.78 79.2307L1126.81 78.9675C1127.17 77.6546 1127.56 76.3523 1127.97 75.0616L1128.92 75.3676ZM105.938 76.5243C104.761 77.1808 103.577 77.8227 102.388 78.4499L101.922 77.5654C103.104 76.9418 104.281 76.3036 105.451 75.6509L105.938 76.5243ZM820.786 76.0699C820.46 77.3644 820.16 78.6702 819.887 79.9866L818.908 79.7837C819.183 78.4534 819.486 77.1339 819.816 75.8257L820.786 76.0699ZM1301.83 80.7319C1301.55 79.4056 1301.24 78.0891 1300.9 76.7832L1301.86 76.5298C1302.21 77.8507 1302.53 79.1825 1302.81 80.5242L1301.83 80.7319ZM485.747 78.3579C485.74 79.686 485.767 81.0205 485.829 82.3605L484.83 82.4067C484.767 81.0495 484.74 79.6978 484.747 78.3525L485.747 78.3579ZM304.073 82.5843C303.897 81.249 303.689 79.9211 303.449 78.6016L304.432 78.4223C304.676 79.758 304.887 81.1022 305.064 82.4539L304.073 82.5843ZM98.7939 80.2926C97.5882 80.8932 96.3771 81.4789 95.1608 82.0499L94.7358 81.1447C95.9451 80.577 97.1493 79.9946 98.3481 79.3975L98.7939 80.2926ZM641.718 81.5647C641.74 80.8889 641.754 80.2149 641.759 79.5426L642.759 79.5504C642.754 80.2311 642.74 80.9137 642.717 81.5979L642.649 83.6488L641.65 83.6156L641.718 81.5647ZM1007.2 85.8657C1007.01 84.5718 1006.8 83.285 1006.56 82.006L1007.54 81.8231C1007.78 83.1156 1008 84.4161 1008.19 85.7237L1007.2 85.8657ZM91.483 83.7245C90.2507 84.2684 89.0135 84.7974 87.7716 85.3114L87.3891 84.3874C88.6239 83.8763 89.854 83.3504 91.0793 82.8096L91.483 83.7245ZM1126.8 83.1395C1126.51 84.4469 1126.24 85.764 1126.01 87.09L1125.02 86.9141C1125.26 85.5733 1125.53 84.2416 1125.83 82.9197L1126.8 83.1395ZM819.155 83.9393C818.94 85.2541 818.751 86.5788 818.59 87.9127L817.597 87.7928C817.76 86.445 817.95 85.1065 818.168 83.7779L819.155 83.9393ZM1303.14 88.7394C1302.99 87.3916 1302.8 86.0517 1302.58 84.7205L1303.57 84.5589C1303.79 85.9056 1303.98 87.261 1304.14 88.6244L1303.14 88.7394ZM84.0214 86.8127C82.7647 87.2989 81.5036 87.77 80.2384 88.226L79.8993 87.2852C81.1573 86.8318 82.4111 86.3634 83.6605 85.88L84.0214 86.8127ZM486.116 86.3498C486.245 87.6682 486.408 88.9909 486.606 90.3171L485.617 90.4647C485.417 89.1218 485.252 87.7823 485.121 86.4471L486.116 86.3498ZM304.728 90.6156C304.685 89.2686 304.608 87.9267 304.499 86.591L305.496 86.5098C305.606 87.8618 305.684 89.2202 305.727 90.5837L304.728 90.6156ZM641.377 91.819L641.513 87.7173L642.513 87.7505L642.376 91.8522L641.377 91.819ZM76.4247 89.5506C75.1466 89.978 73.8645 90.3902 72.5788 90.7871L72.2838 89.8316C73.5621 89.437 74.8368 89.0272 76.1076 88.6022L76.4247 89.5506ZM1007.98 93.6441C1007.91 92.3398 1007.8 91.0412 1007.67 89.7489L1008.67 89.6481C1008.8 90.9541 1008.9 92.2665 1008.98 93.5846L1007.98 93.6441ZM1125.39 91.0759C1125.21 92.4024 1125.06 93.7368 1124.95 95.0785L1123.95 94.9915C1124.07 93.6349 1124.22 92.2856 1124.39 90.9444L1125.39 91.0759ZM68.7079 91.9332C67.4116 92.3007 66.1119 92.6529 64.8092 92.9897L64.5588 92.0216C65.8541 91.6866 67.1463 91.3365 68.4352 90.9711L68.7079 91.9332ZM818.192 91.9075C818.139 92.5759 818.093 93.2463 818.054 93.9189L817.944 95.8138L816.946 95.7559L817.056 93.861C817.095 93.1816 817.142 92.5042 817.195 91.829L818.192 91.9075ZM1303.7 96.832C1303.67 95.4748 1303.61 94.1236 1303.52 92.7793L1304.51 92.711C1304.61 94.0709 1304.67 95.4377 1304.7 96.8105L1303.7 96.832ZM60.8881 93.9553C59.5768 94.2621 58.2627 94.5535 56.9461 94.8295L56.7409 93.8508C58.05 93.5764 59.3565 93.2866 60.6603 92.9816L60.8881 93.9553ZM487.295 94.256C487.427 94.9108 487.567 95.5663 487.716 96.2223L488.147 98.1227L487.171 98.3438L486.74 96.4435C486.59 95.7794 486.448 95.1158 486.315 94.4528L487.295 94.256ZM52.9836 95.6125C51.6598 95.8582 50.3337 96.0884 49.0056 96.3032L48.8459 95.316C50.1664 95.1025 51.4849 94.8736 52.8012 94.6293L52.9836 95.6125ZM304.697 96.6614C304.725 95.9885 304.745 95.3164 304.757 94.6454L305.757 94.6628C305.745 95.342 305.725 96.0222 305.696 96.7034L305.614 98.6641L304.615 98.6221L304.697 96.6614ZM45.0113 96.9018C43.6774 97.086 42.3419 97.2546 41.0049 97.4078L40.8911 96.4143C42.2204 96.262 43.5483 96.0943 44.8745 95.9112L45.0113 96.9018ZM641.104 100.022L641.24 95.9207L642.24 95.9539L642.104 100.056L641.104 100.022ZM4.72666 97.771C3.38688 97.6446 2.04821 97.5027 0.710938 97.3453L0.827843 96.3522C2.15745 96.5087 3.48844 96.6497 4.82056 96.7754L4.72666 97.771ZM36.988 97.8209C35.647 97.9432 34.305 98.0499 32.9621 98.1411L32.8943 97.1434C34.2296 97.0527 35.5639 96.9466 36.8972 96.8251L36.988 97.8209ZM12.7825 98.3431C11.438 98.2788 10.0941 98.199 8.75104 98.1036L8.82188 97.1061C10.1573 97.201 11.4935 97.2803 12.8303 97.3443L12.7825 98.3431ZM28.9304 98.3681C27.5854 98.4282 26.2399 98.4728 24.8941 98.5018L24.8726 97.5021C26.2107 97.4732 27.5485 97.4289 28.8857 97.3691L28.9304 98.3681ZM20.8561 98.5423C19.51 98.5402 18.1638 98.5225 16.818 98.4893L16.8426 97.4896C18.1808 97.5227 19.5192 97.5402 20.8576 97.5423L20.8561 98.5423ZM1008.13 101.461C1008.16 100.153 1008.16 98.849 1008.14 97.5501L1009.14 97.5319C1009.16 98.8445 1009.16 100.162 1009.13 101.484L1008.13 101.461ZM1124.69 99.0976C1124.63 100.435 1124.6 101.78 1124.61 103.129L1123.61 103.132C1123.6 101.767 1123.63 100.408 1123.69 99.0554L1124.69 99.0976ZM817.725 99.6035L817.505 103.393L816.507 103.335L816.727 99.5457L817.725 99.6035ZM1303.5 104.941C1303.59 103.586 1303.66 102.235 1303.69 100.889L1304.69 100.914C1304.66 102.275 1304.59 103.642 1304.49 105.012L1303.5 104.941ZM489.009 101.923L489.871 105.724L488.895 105.945L488.033 102.145L489.009 101.923ZM304.285 106.465L304.45 102.544L305.449 102.586L305.285 106.507L304.285 106.465ZM640.831 108.226L640.968 104.124L641.967 104.157L641.831 108.259L640.831 108.226ZM1007.63 109.267C1007.76 107.965 1007.87 106.666 1007.96 105.371L1008.95 105.435C1008.87 106.744 1008.76 108.056 1008.62 109.372L1007.63 109.267ZM817.286 107.183L817.066 110.973L816.068 110.915L816.287 107.125L817.286 107.183ZM1124.7 107.161C1124.77 108.495 1124.86 109.833 1124.98 111.176L1123.99 111.266C1123.86 109.909 1123.77 108.556 1123.71 107.208L1124.7 107.161ZM1302.85 110.999C1302.95 110.325 1303.03 109.652 1303.11 108.98L1304.11 109.097C1304.03 109.777 1303.94 110.458 1303.84 111.139L1303.71 112.053L1302.72 111.913L1302.85 110.999ZM490.733 109.525L491.595 113.325L490.619 113.547L489.757 109.746L490.733 109.525ZM303.956 114.308L304.121 110.386L305.12 110.428L304.955 114.35L303.956 114.308ZM640.558 116.429L640.695 112.328L641.694 112.361L641.558 116.463L640.558 116.429ZM1006.83 115.084C1006.94 114.436 1007.04 113.79 1007.14 113.144L1008.13 113.289C1008.03 113.941 1007.93 114.594 1007.82 115.248L1007.49 117.223L1006.5 117.058L1006.83 115.084ZM1302.33 114.653L1302.46 113.74L1303.45 113.88L1303.32 114.793C1303.23 115.447 1303.15 116.1 1303.07 116.752L1302.08 116.633C1302.15 115.975 1302.24 115.315 1302.33 114.653ZM816.847 114.763L816.627 118.552L815.629 118.494L815.848 114.705L816.847 114.763ZM1125.44 115.181C1125.61 116.508 1125.82 117.839 1126.06 119.172L1125.08 119.349C1124.84 118.002 1124.63 116.657 1124.44 115.315L1125.44 115.181ZM492.457 117.126L493.319 120.927L492.344 121.148L491.481 117.347L492.457 117.126ZM303.627 122.151L303.792 118.229L304.791 118.271L304.626 122.193L303.627 122.151ZM640.286 124.633L640.422 120.531L641.421 120.564L641.285 124.666L640.286 124.633ZM1301.48 124.535C1301.52 123.219 1301.59 121.896 1301.69 120.566L1302.69 120.641C1302.59 121.956 1302.52 123.265 1302.48 124.566L1301.48 124.535ZM1005.19 124.955L1005.85 121.006L1006.83 121.171L1006.17 125.119L1005.19 124.955ZM816.407 122.342L816.188 126.132L815.189 126.074L815.409 122.284L816.407 122.342ZM1126.86 123.113C1127.01 123.77 1127.16 124.428 1127.32 125.087L1127.8 127.019L1126.83 127.258L1126.35 125.326C1126.19 124.661 1126.03 123.996 1125.88 123.331L1126.86 123.113ZM494.181 124.728L495.043 128.528L494.068 128.75L493.206 124.949L494.181 124.728ZM303.298 129.994L303.462 126.072L304.461 126.114L304.297 130.035L303.298 129.994ZM1301.6 132.45C1301.52 131.141 1301.47 129.822 1301.45 128.495L1302.45 128.481C1302.47 129.793 1302.52 131.096 1302.59 132.39L1301.6 132.45ZM640.013 132.836L640.149 128.734L641.149 128.768L641.012 132.869L640.013 132.836ZM1003.87 132.852L1004.53 128.903L1005.51 129.068L1004.85 133.016L1003.87 132.852ZM815.968 129.922L815.749 133.711L814.75 133.653L814.97 129.864L815.968 129.922ZM1128.75 130.882L1129.71 134.746L1128.73 134.985L1127.78 131.122L1128.75 130.882ZM495.905 132.329L496.767 136.13L495.792 136.351L494.93 132.55L495.905 132.329ZM302.968 137.836L303.133 133.915L304.132 133.957L303.967 137.878L302.968 137.836ZM1302.44 140.337C1302.24 139.038 1302.07 137.728 1301.93 136.408L1302.92 136.303C1303.06 137.607 1303.23 138.901 1303.42 140.186L1302.44 140.337ZM1002.55 140.749L1003.21 136.8L1004.19 136.965L1003.54 140.913L1002.55 140.749ZM639.808 138.989L639.876 136.938L640.876 136.971L640.807 139.022C640.786 139.674 640.771 140.325 640.764 140.974L639.764 140.963C639.771 140.306 639.786 139.648 639.808 138.989ZM815.529 137.501L815.309 141.291L814.311 141.233L814.531 137.443L815.529 137.501ZM1130.66 138.609L1131.61 142.472L1130.64 142.712L1129.69 138.848L1130.66 138.609ZM497.629 139.93L498.491 143.731L497.516 143.952L496.654 140.152L497.629 139.93ZM302.639 145.679L302.804 141.758L303.803 141.8L303.638 145.721L302.639 145.679ZM1304 148.108C1303.68 146.829 1303.39 145.538 1303.13 144.235L1304.11 144.037C1304.37 145.325 1304.66 146.601 1304.97 147.865L1304 148.108ZM1001.23 148.646L1001.89 144.697L1002.88 144.862L1002.22 148.81L1001.23 148.646ZM640.024 148.823C639.923 147.521 639.85 146.212 639.807 144.896L640.806 144.863C640.849 146.164 640.921 147.459 641.021 148.745L640.024 148.823ZM815.09 145.081L814.98 146.975C814.94 147.663 814.893 148.349 814.837 149.033L813.84 148.952C813.895 148.276 813.942 147.598 813.982 146.918L814.092 145.023L815.09 145.081ZM1132.56 146.336L1133.51 150.199L1132.54 150.439L1131.59 146.575L1132.56 146.336ZM499.353 147.532L500.215 151.333L499.24 151.554L498.378 147.753L499.353 147.532ZM302.31 153.522L302.474 149.601L303.474 149.643L303.309 153.564L302.31 153.522ZM1306.29 155.693C1305.85 154.452 1305.44 153.197 1305.06 151.929L1306.01 151.641C1306.39 152.894 1306.8 154.134 1307.23 155.36L1306.29 155.693ZM999.913 156.543L1000.57 152.594L1001.56 152.759L1000.9 156.707L999.913 156.543ZM640.985 156.633C640.767 155.343 640.578 154.044 640.417 152.736L641.409 152.614C641.568 153.907 641.756 155.191 641.972 156.466L640.985 156.633ZM814.409 153.123C814.234 154.489 814.028 155.845 813.791 157.19L812.806 157.017C813.04 155.687 813.244 154.347 813.417 152.996L814.409 153.123ZM1134.47 154.063L1135.42 157.926L1134.45 158.165L1133.5 154.302L1134.47 154.063ZM501.077 155.133L501.939 158.934L500.964 159.155L500.102 155.355L501.077 155.133ZM301.98 161.365L302.145 157.443L303.144 157.485L302.98 161.407L301.98 161.365ZM1309.27 163.04C1308.72 161.843 1308.19 160.63 1307.7 159.403L1308.62 159.026C1309.11 160.239 1309.63 161.438 1310.18 162.621L1309.27 163.04ZM642.647 164.326C642.313 163.061 642.007 161.785 641.729 160.498L642.707 160.287C642.981 161.559 643.284 162.82 643.614 164.07L642.647 164.326ZM998.594 164.439L999.253 160.491L1000.24 160.656L999.581 164.604L998.594 164.439ZM812.983 161.223C812.681 162.566 812.349 163.896 811.987 165.214L811.022 164.949C811.38 163.646 811.709 162.331 812.008 161.004L812.983 161.223ZM1136.37 161.789L1137.32 165.653L1136.35 165.892L1135.4 162.029L1136.37 161.789ZM502.801 162.735L503.663 166.535L502.688 166.757L501.826 162.956L502.801 162.735ZM301.651 169.208L301.816 165.286L302.815 165.328L302.65 169.25L301.651 169.208ZM1312.93 170.073C1312.26 168.931 1311.63 167.773 1311.02 166.598L1311.91 166.137C1312.51 167.298 1313.14 168.443 1313.79 169.572L1312.93 170.073ZM644.997 171.835C644.55 170.605 644.13 169.362 643.737 168.107L644.691 167.808C645.08 169.049 645.495 170.277 645.937 171.493L644.997 171.835ZM997.276 172.336L997.935 168.388L998.921 168.553L998.262 172.501L997.276 172.336ZM810.803 169.154C810.376 170.461 809.92 171.754 809.434 173.033L808.499 172.678C808.979 171.414 809.43 170.136 809.852 168.843L810.803 169.154ZM1138.28 169.516L1139.23 173.38L1138.26 173.619L1137.31 169.756L1138.28 169.516ZM504.525 170.336L504.956 172.237C505.104 172.889 505.245 173.541 505.38 174.193L504.401 174.396C504.267 173.75 504.127 173.104 503.981 172.458L503.55 170.557L504.525 170.336ZM1317.21 176.743C1316.45 175.666 1315.71 174.571 1314.99 173.458L1315.83 172.917C1316.54 174.017 1317.27 175.1 1318.03 176.164L1317.21 176.743ZM301.322 177.051L301.487 173.129L302.486 173.171L302.321 177.093L301.322 177.051ZM648.015 179.101C647.459 177.915 646.928 176.715 646.424 175.502L647.347 175.118C647.846 176.318 648.37 177.504 648.92 178.676L648.015 179.101ZM995.958 180.233L996.617 176.285L997.603 176.45L996.944 180.398L995.958 180.233ZM807.884 176.844C807.337 178.104 806.76 179.348 806.156 180.577L805.259 180.135C805.856 178.921 806.426 177.691 806.967 176.445L807.884 176.844ZM1140.18 177.243L1141.13 181.106L1140.16 181.346L1139.21 177.482L1140.18 177.243ZM506.114 178.104C506.335 179.422 506.53 180.739 506.7 182.053L505.708 182.181C505.54 180.879 505.347 179.575 505.127 178.27L506.114 178.104ZM1322.08 182.993C1321.22 181.989 1320.39 180.965 1319.58 179.922L1320.36 179.307C1321.17 180.339 1321.99 181.351 1322.84 182.343L1322.08 182.993ZM300.993 184.893L301.157 180.972L302.156 181.014L301.992 184.935L300.993 184.893ZM651.675 186.066C651.014 184.934 650.378 183.787 649.767 182.624L650.652 182.159C651.256 183.308 651.885 184.443 652.539 185.561L651.675 186.066ZM804.254 184.224C803.591 185.427 802.9 186.612 802.182 187.778L801.331 187.254C802.04 186.101 802.723 184.93 803.379 183.741L804.254 184.224ZM994.639 188.13L995.298 184.182L996.285 184.347L995.625 188.295L994.639 188.13ZM1142.09 184.97L1143.04 188.833L1142.07 189.073L1141.11 185.209L1142.09 184.97ZM1327.5 188.778C1326.56 187.856 1325.63 186.912 1324.73 185.947L1325.46 185.263C1326.35 186.217 1327.26 187.15 1328.2 188.062L1327.5 188.778ZM507.134 186.017C507.254 187.345 507.347 188.669 507.415 189.99L506.416 190.042C506.349 188.733 506.257 187.422 506.138 186.107L507.134 186.017ZM300.746 190.776L300.828 188.815L301.827 188.857L301.745 190.818C301.717 191.486 301.695 192.152 301.68 192.817L300.68 192.795C300.696 192.123 300.717 191.45 300.746 190.776ZM655.946 192.675C655.186 191.607 654.449 190.521 653.737 189.418L654.577 188.876C655.281 189.966 656.009 191.039 656.761 192.095L655.946 192.675ZM799.946 191.231C799.173 192.365 798.375 193.48 797.551 194.575L796.752 193.974C797.566 192.892 798.356 191.789 799.12 190.668L799.946 191.231ZM1333.41 194.054C1332.39 193.22 1331.38 192.362 1330.4 191.482L1331.06 190.736C1332.04 191.606 1333.03 192.454 1334.05 193.279L1333.41 194.054ZM993.321 196.027L993.98 192.079L994.966 192.243L994.307 196.192L993.321 196.027ZM1143.99 192.697L1144.94 196.56L1143.97 196.799L1143.02 192.936L1143.99 192.697ZM507.543 193.976C507.559 195.31 507.55 196.64 507.515 197.965L506.516 197.939C506.55 196.626 506.559 195.309 506.543 193.988L507.543 193.976ZM660.789 198.876C659.937 197.88 659.106 196.864 658.298 195.83L659.086 195.214C659.885 196.237 660.706 197.241 661.549 198.226L660.789 198.876ZM1339.78 198.781C1338.68 198.041 1337.6 197.276 1336.54 196.489L1337.14 195.686C1338.19 196.465 1339.25 197.22 1340.34 197.952L1339.78 198.781ZM300.802 200.834C300.731 199.499 300.685 198.157 300.664 196.808L301.664 196.793C301.684 198.129 301.73 199.458 301.801 200.78L300.802 200.834ZM795.002 197.804C794.126 198.86 793.227 199.896 792.304 200.909L791.565 200.236C792.477 199.234 793.366 198.21 794.231 197.166L795.002 197.804ZM1439.29 199.682L1435.26 201.333L1434.88 200.407L1438.91 198.756L1439.29 199.682ZM992.332 201.95L992.662 199.976L993.648 200.14L993.318 202.115C993.208 202.778 993.105 203.441 993.011 204.102L992.021 203.961C992.116 203.292 992.22 202.622 992.332 201.95ZM1346.54 202.918C1345.38 202.279 1344.24 201.615 1343.11 200.925L1343.63 200.072C1344.75 200.754 1345.88 201.411 1347.02 202.043L1346.54 202.918ZM1145.9 200.423L1146.37 202.355C1146.54 203.031 1146.69 203.707 1146.84 204.382L1145.87 204.596C1145.72 203.929 1145.56 203.262 1145.4 202.595L1144.92 200.663L1145.9 200.423ZM666.166 204.621C665.227 203.704 664.31 202.767 663.413 201.809L664.144 201.125C665.03 202.072 665.937 203 666.865 203.906L666.166 204.621ZM507.333 201.947C507.246 203.275 507.134 204.599 506.996 205.916L506.001 205.812C506.138 204.507 506.249 203.197 506.335 201.882L507.333 201.947ZM1431.23 202.984L1427.19 204.634L1426.82 203.709L1430.85 202.058L1431.23 202.984ZM789.465 203.886C788.495 204.855 787.503 205.803 786.49 206.726L785.816 205.987C786.818 205.074 787.799 204.138 788.758 203.179L789.465 203.886ZM1353.64 206.432C1352.43 205.9 1351.23 205.341 1350.05 204.755L1350.49 203.859C1351.66 204.438 1352.85 204.991 1354.04 205.517L1353.64 206.432ZM301.543 208.839C301.369 207.515 301.219 206.184 301.095 204.846L302.091 204.754C302.214 206.079 302.362 207.397 302.535 208.708L301.543 208.839ZM1423.16 206.285L1421.15 207.111C1420.53 207.364 1419.91 207.61 1419.29 207.848L1418.93 206.914C1419.54 206.679 1420.16 206.436 1420.77 206.186L1422.78 205.36L1423.16 206.285ZM672.032 209.865C671.016 209.035 670.018 208.182 669.041 207.308L669.707 206.563C670.674 207.427 671.66 208.269 672.665 209.09L672.032 209.865ZM1361.03 209.287C1359.78 208.867 1358.54 208.419 1357.31 207.944L1357.67 207.011C1358.88 207.481 1360.11 207.924 1361.35 208.339L1361.03 209.287ZM991.274 212.012C991.332 210.673 991.424 209.328 991.549 207.977L992.545 208.07C992.421 209.404 992.331 210.733 992.273 212.055L991.274 212.012ZM1415.57 209.185C1414.31 209.609 1413.04 210.002 1411.78 210.364L1411.5 209.403C1412.75 209.045 1414 208.656 1415.25 208.237L1415.57 209.185ZM1147.62 208.458C1147.84 209.831 1148.02 211.202 1148.17 212.57L1147.17 212.676C1147.03 211.326 1146.85 209.973 1146.63 208.618L1147.62 208.458ZM783.385 209.425C782.33 210.3 781.254 211.15 780.158 211.976L779.556 211.177C780.64 210.361 781.703 209.52 782.747 208.655L783.385 209.425ZM1368.66 211.454C1367.37 211.151 1366.09 210.819 1364.82 210.459L1365.1 209.497C1366.35 209.853 1367.61 210.181 1368.89 210.481L1368.66 211.454ZM506.504 209.876C506.314 211.194 506.099 212.506 505.858 213.811L504.875 213.63C505.113 212.338 505.326 211.039 505.514 209.733L506.504 209.876ZM1407.95 211.369C1406.65 211.676 1405.36 211.953 1404.08 212.198L1403.89 211.216C1405.16 210.973 1406.44 210.7 1407.71 210.396L1407.95 211.369ZM1376.45 212.907C1375.14 212.725 1373.83 212.513 1372.54 212.271L1372.72 211.288C1374 211.527 1375.29 211.737 1376.59 211.917L1376.45 212.907ZM678.344 214.564C677.256 213.828 676.187 213.068 675.135 212.285L675.733 211.483C676.772 212.257 677.83 213.008 678.904 213.736L678.344 214.564ZM1400.16 212.852C1398.84 213.04 1397.53 213.197 1396.22 213.322L1396.13 212.327C1397.42 212.203 1398.72 212.048 1400.02 211.862L1400.16 212.852ZM1384.34 213.629C1383.02 213.57 1381.7 213.48 1380.39 213.361L1380.48 212.365C1381.78 212.483 1383.08 212.572 1384.39 212.63L1384.34 213.629ZM1392.28 213.609C1390.95 213.675 1389.63 213.709 1388.31 213.712L1388.3 212.712C1389.61 212.709 1390.92 212.675 1392.23 212.611L1392.28 213.609ZM302.907 216.768C302.629 215.459 302.375 214.142 302.147 212.815L303.133 212.646C303.359 213.959 303.61 215.264 303.885 216.56L302.907 216.768ZM776.815 214.373C775.683 215.145 774.532 215.892 773.364 216.611L772.839 215.76C773.995 215.048 775.132 214.31 776.251 213.547L776.815 214.373ZM685.05 218.68C683.901 218.044 682.768 217.383 681.651 216.698L682.174 215.845C683.278 216.523 684.398 217.176 685.534 217.805L685.05 218.68ZM991.329 220.114C991.252 218.773 991.209 217.423 991.2 216.065L992.2 216.059C992.209 217.399 992.251 218.732 992.327 220.057L991.329 220.114ZM1148.49 216.707C1148.56 218.094 1148.6 219.477 1148.59 220.855L1147.59 220.851C1147.6 219.491 1147.56 218.127 1147.49 216.758L1148.49 216.707ZM505.061 217.716C504.769 219.015 504.453 220.305 504.112 221.587L503.145 221.331C503.483 220.061 503.796 218.783 504.085 217.497L505.061 217.716ZM769.811 218.685C768.612 219.348 767.397 219.983 766.165 220.59L765.723 219.693C766.941 219.093 768.142 218.465 769.327 217.81L769.811 218.685ZM692.098 222.176C690.896 221.646 689.708 221.09 688.535 220.508L688.979 219.612C690.139 220.187 691.313 220.737 692.502 221.261L692.098 222.176ZM304.886 224.558C304.506 223.277 304.151 221.985 303.82 220.683L304.79 220.437C305.117 221.726 305.469 223.005 305.845 224.274L304.886 224.558ZM762.433 222.321C761.179 222.868 759.909 223.386 758.624 223.875L758.269 222.94C759.538 222.457 760.793 221.945 762.034 221.405L762.433 222.321ZM699.433 225.023C698.187 224.603 696.954 224.156 695.734 223.682L696.095 222.75C697.302 223.218 698.521 223.66 699.753 224.075L699.433 225.023ZM992.199 228.161C991.986 226.834 991.807 225.496 991.662 224.149L992.656 224.042C992.8 225.372 992.977 226.693 993.186 228.003L992.199 228.161ZM754.746 225.247C753.446 225.673 752.133 226.069 750.808 226.434L750.542 225.471C751.852 225.109 753.15 224.717 754.435 224.297L754.746 225.247ZM1148.46 225.002C1148.37 226.387 1148.25 227.766 1148.1 229.135L1147.1 229.021C1147.26 227.669 1147.38 226.309 1147.46 224.942L1148.46 225.002ZM503.013 225.422C502.621 226.693 502.206 227.956 501.767 229.209L500.823 228.878C501.258 227.637 501.669 226.387 502.057 225.128L503.013 225.422ZM706.997 227.195C705.717 226.889 704.448 226.555 703.19 226.194L703.466 225.233C704.709 225.59 705.964 225.92 707.229 226.222L706.997 227.195ZM746.818 227.435C745.484 227.736 744.14 228.006 742.785 228.246L742.611 227.261C743.95 227.024 745.279 226.757 746.597 226.459L746.818 227.435ZM714.729 228.675C713.425 228.486 712.13 228.268 710.846 228.022L711.034 227.04C712.304 227.283 713.583 227.498 714.872 227.685L714.729 228.675ZM738.718 228.866C737.364 229.04 736 229.184 734.628 229.295L734.547 228.299C735.904 228.188 737.252 228.047 738.591 227.874L738.718 228.866ZM307.474 232.177C306.994 230.928 306.538 229.667 306.105 228.394L307.052 228.073C307.48 229.332 307.932 230.581 308.407 231.818L307.474 232.177ZM722.554 229.455C721.239 229.383 719.932 229.282 718.633 229.152L718.732 228.157C720.016 228.285 721.309 228.385 722.609 228.456L722.554 229.455ZM730.522 229.534C729.836 229.557 729.149 229.573 728.46 229.581C727.8 229.589 727.142 229.589 726.485 229.582L726.496 228.583C727.145 228.589 727.796 228.589 728.448 228.581C729.13 228.573 729.809 228.558 730.487 228.534L730.522 229.534ZM993.881 236.078C993.534 234.778 993.22 233.465 992.939 232.14L993.917 231.932C994.195 233.24 994.505 234.537 994.847 235.821L993.881 236.078ZM500.376 232.944C499.888 234.182 499.376 235.408 498.842 236.624L497.926 236.222C498.456 235.018 498.962 233.803 499.446 232.577L500.376 232.944ZM1147.51 233.243C1147.27 234.609 1147 235.965 1146.69 237.311L1145.71 237.087C1146.02 235.76 1146.29 234.421 1146.52 233.073L1147.51 233.243ZM310.649 239.564C310.072 238.356 309.519 237.135 308.989 235.901L309.907 235.506C310.432 236.728 310.98 237.937 311.551 239.133L310.649 239.564ZM996.36 243.788C995.883 242.528 995.437 241.253 995.022 239.965L995.974 239.659C996.384 240.931 996.824 242.19 997.295 243.434L996.36 243.788ZM497.167 240.243C496.585 241.439 495.981 242.623 495.355 243.794L494.473 243.322C495.093 242.162 495.692 240.99 496.268 239.805L497.167 240.243ZM1145.65 241.328C1145.27 242.659 1144.84 243.978 1144.39 245.282L1143.45 244.953C1143.89 243.665 1144.31 242.364 1144.69 241.051L1145.65 241.328ZM314.393 246.683C313.724 245.523 313.076 244.349 312.452 243.161L313.337 242.695C313.955 243.872 314.596 245.035 315.259 246.184L314.393 246.683ZM493.408 247.273C492.737 248.42 492.044 249.555 491.33 250.675L490.486 250.137C491.194 249.028 491.88 247.904 492.545 246.768L493.408 247.273ZM999.604 251.205C999.002 249.999 998.43 248.776 997.888 247.537L998.804 247.137C999.339 248.36 999.905 249.568 1000.5 250.758L999.604 251.205ZM1142.92 249.161C1142.39 250.442 1141.83 251.706 1141.23 252.954L1140.33 252.523C1140.92 251.292 1141.47 250.044 1141.99 248.781L1142.92 249.161ZM318.679 253.487C317.921 252.382 317.185 251.262 316.47 250.127L317.316 249.594C318.024 250.718 318.753 251.828 319.504 252.922L318.679 253.487ZM489.122 253.995C488.366 255.088 487.588 256.166 486.79 257.228L485.991 256.628C486.781 255.575 487.551 254.508 488.3 253.426L489.122 253.995ZM1003.57 258.258C1002.86 257.118 1002.16 255.959 1001.5 254.781L1002.37 254.291C1003.03 255.453 1003.71 256.599 1004.42 257.725L1003.57 258.258ZM323.48 259.94C322.639 258.897 321.818 257.837 321.017 256.76L321.819 256.163C322.612 257.229 323.426 258.279 324.258 259.312L323.48 259.94ZM1139.34 256.648C1138.68 257.863 1137.98 259.059 1137.26 260.235L1136.41 259.708C1137.12 258.548 1137.81 257.368 1138.47 256.169L1139.34 256.648ZM484.336 260.37C483.498 261.402 482.641 262.417 481.763 263.416L481.012 262.756C481.881 261.767 482.73 260.761 483.56 259.74L484.336 260.37ZM1008.23 264.883C1007.4 263.819 1006.6 262.733 1005.82 261.628L1006.64 261.053C1007.4 262.145 1008.2 263.217 1009.02 264.268L1008.23 264.883ZM328.764 266.002C327.845 265.026 326.945 264.032 326.063 263.022L326.817 262.364C327.69 263.366 328.582 264.35 329.492 265.316L328.764 266.002ZM1134.98 263.702C1134.19 264.836 1133.36 265.95 1132.51 267.04L1131.72 266.424C1132.56 265.348 1133.38 264.25 1134.16 263.13L1134.98 263.702ZM479.077 266.361C478.163 267.325 477.23 268.272 476.279 269.201L475.58 268.486C476.522 267.565 477.446 266.628 478.351 265.673L479.077 266.361ZM1013.52 271.013C1012.58 270.036 1011.68 269.036 1010.8 268.013L1011.55 267.36C1012.42 268.37 1013.32 269.358 1014.24 270.324L1013.52 271.013ZM334.5 271.638C333.509 270.736 332.534 269.815 331.578 268.875L332.279 268.162C333.226 269.093 334.191 270.005 335.173 270.899L334.5 271.638ZM1129.87 270.239C1128.96 271.28 1128.02 272.297 1127.05 273.288L1126.34 272.591C1127.29 271.612 1128.22 270.608 1129.12 269.581L1129.87 270.239ZM473.373 271.932C472.388 272.823 471.385 273.695 470.365 274.549L469.724 273.782C470.734 272.937 471.727 272.073 472.702 271.19L473.373 271.932ZM1019.38 276.593C1018.36 275.712 1017.36 274.806 1016.38 273.875L1017.07 273.151C1018.03 274.07 1019.02 274.965 1020.03 275.835L1019.38 276.593ZM340.654 276.817C339.595 275.993 338.553 275.15 337.527 274.287L338.171 273.522C339.187 274.376 340.219 275.212 341.268 276.027L340.654 276.817ZM1124.08 276.18C1123.06 277.115 1122.02 278.023 1120.95 278.904L1120.31 278.132C1121.37 277.263 1122.4 276.367 1123.4 275.444L1124.08 276.18ZM467.26 277.047C466.209 277.859 465.142 278.652 464.059 279.425L463.478 278.611C464.551 277.845 465.608 277.061 466.648 276.256L467.26 277.047ZM1025.77 281.566C1024.66 280.79 1023.58 279.987 1022.51 279.158L1023.13 278.369C1024.18 279.188 1025.25 279.981 1026.34 280.747L1025.77 281.566ZM347.188 281.504C346.068 280.765 344.964 280.005 343.875 279.224L344.458 278.411C345.536 279.185 346.63 279.938 347.739 280.67L347.188 281.504ZM1117.67 281.451C1116.56 282.268 1115.42 283.056 1114.26 283.814L1113.71 282.976C1114.86 282.228 1115.98 281.451 1117.08 280.645L1117.67 281.451ZM460.767 281.677C459.658 282.405 458.533 283.113 457.393 283.799L456.877 282.943C458.006 282.263 459.12 281.562 460.219 280.841L460.767 281.677ZM354.066 285.673C352.892 285.023 351.732 284.35 350.586 283.656L351.105 282.801C352.239 283.488 353.388 284.155 354.55 284.799L354.066 285.673ZM1032.62 285.88C1031.44 285.218 1030.28 284.527 1029.14 283.808L1029.67 282.962C1030.8 283.672 1031.94 284.355 1033.11 285.009L1032.62 285.88ZM453.939 285.788C452.777 286.428 451.6 287.046 450.409 287.643L449.961 286.748C451.141 286.158 452.306 285.546 453.457 284.912L453.939 285.788ZM1110.72 285.984C1109.53 286.672 1108.31 287.33 1107.07 287.955L1106.62 287.062C1107.84 286.446 1109.05 285.797 1110.22 285.117L1110.72 285.984ZM361.245 289.295C360.024 288.738 358.815 288.157 357.62 287.554L358.07 286.661C359.254 287.259 360.451 287.833 361.661 288.385L361.245 289.295ZM1039.86 289.489C1038.62 288.948 1037.4 288.376 1036.2 287.776L1036.64 286.88C1037.83 287.474 1039.04 288.038 1040.26 288.573L1039.86 289.489ZM446.807 289.359C445.6 289.905 444.38 290.43 443.146 290.931L442.77 290.005C443.991 289.508 445.199 288.989 446.394 288.448L446.807 289.359ZM1103.32 289.721C1102.06 290.273 1100.77 290.792 1099.47 291.277L1099.12 290.34C1100.41 289.861 1101.67 289.349 1102.92 288.805L1103.32 289.721ZM368.687 292.346C367.426 291.886 366.176 291.402 364.938 290.894L365.317 289.969C366.543 290.471 367.781 290.951 369.03 291.407L368.687 292.346ZM1047.44 292.35C1046.15 291.937 1044.87 291.492 1043.61 291.015L1043.97 290.08C1045.21 290.55 1046.47 290.99 1047.74 291.398L1047.44 292.35ZM439.426 292.36C438.179 292.812 436.92 293.24 435.649 293.645L435.345 292.692C436.604 292.291 437.851 291.867 439.085 291.42L439.426 292.36ZM1095.54 292.618C1094.23 293.027 1092.9 293.402 1091.55 293.742L1091.31 292.773C1092.64 292.437 1093.95 292.067 1095.25 291.663L1095.54 292.618ZM1055.26 294.43C1053.94 294.149 1052.63 293.835 1051.33 293.49L1051.58 292.523C1052.87 292.865 1054.16 293.174 1055.47 293.451L1055.26 294.43ZM376.344 294.805C375.05 294.444 373.765 294.059 372.491 293.65L372.796 292.698C374.058 293.103 375.33 293.484 376.612 293.841L376.344 294.805ZM1087.5 294.647C1086.82 294.78 1086.14 294.904 1085.45 295.019C1084.78 295.131 1084.11 295.235 1083.44 295.331L1083.3 294.341C1083.96 294.246 1084.63 294.144 1085.29 294.033C1085.97 293.919 1086.64 293.797 1087.31 293.666L1087.5 294.647ZM431.827 294.782C430.552 295.134 429.265 295.463 427.968 295.768L427.739 294.795C429.024 294.493 430.298 294.167 431.56 293.818L431.827 294.782ZM1063.26 295.702C1061.91 295.557 1060.57 295.379 1059.24 295.167L1059.4 294.18C1060.71 294.389 1062.03 294.565 1063.36 294.708L1063.26 295.702ZM1079.43 295.805C1078.08 295.931 1076.73 296.024 1075.39 296.082L1075.35 295.083C1076.67 295.025 1078 294.934 1079.33 294.809L1079.43 295.805ZM384.171 296.654C382.853 296.397 381.543 296.115 380.243 295.807L380.473 294.834C381.76 295.138 383.057 295.418 384.362 295.673L384.171 296.654ZM1071.34 296.159C1069.98 296.151 1068.63 296.108 1067.29 296.033L1067.35 295.034C1068.67 295.109 1070.01 295.151 1071.35 295.159L1071.34 296.159ZM424.07 296.607C422.769 296.861 421.458 297.091 420.137 297.297L419.983 296.309C421.291 296.105 422.59 295.877 423.878 295.626L424.07 296.607ZM392.12 297.884C390.783 297.731 389.453 297.551 388.132 297.347L388.284 296.359C389.593 296.561 390.91 296.739 392.234 296.891L392.12 297.884ZM416.195 297.835C415.533 297.913 414.87 297.984 414.204 298.05C413.532 298.116 412.861 298.175 412.192 298.228L412.113 297.231C412.776 297.179 413.441 297.12 414.106 297.055C414.766 296.99 415.423 296.919 416.078 296.842L416.195 297.835ZM400.136 298.488C398.793 298.44 397.455 298.365 396.125 298.265L396.2 297.267C397.517 297.367 398.842 297.441 400.172 297.489L400.136 298.488ZM408.185 298.469C406.838 298.524 405.495 298.553 404.158 298.556L404.156 297.556C405.48 297.553 406.81 297.524 408.144 297.47L408.185 298.469Z" fill="black" fill-opacity="0.25"/>
<circle cx="302.777" cy="212.639" r="10" fill="#4AC63F"/>
<circle cx="302.777" cy="212.639" r="10" fill="black" fill-opacity="0.25"/>
<circle cx="485.277" cy="83.1387" r="5.5" fill="#4AC63F"/>
<circle cx="485.277" cy="83.1387" r="5.5" fill="black" fill-opacity="0.25"/>
<circle cx="817.277" cy="95.1387" r="8.5" fill="#4AC63F"/>
<circle cx="817.277" cy="95.1387" r="8.5" fill="black" fill-opacity="0.25"/>
<circle cx="1007.28" cy="264.139" r="5.5" fill="#4AC63F"/>
<circle cx="1007.28" cy="264.139" r="5.5" fill="black" fill-opacity="0.25"/>
<circle cx="1152.28" cy="37.1387" r="4.5" fill="#4AC63F"/>
<circle cx="1152.28" cy="37.1387" r="4.5" fill="black" fill-opacity="0.25"/>
<circle cx="1306.78" cy="156.639" r="8" fill="#4AC63F"/>
<circle cx="1306.78" cy="156.639" r="8" fill="black" fill-opacity="0.25"/>
</svg>
